<svg width="493.444" height="493.444" xmlns="http://www.w3.org/2000/svg">

 <g>
  <title>background</title>
  <rect fill="none" id="canvas_background" height="402" width="582" y="-1" x="-1"/>
 </g>
 <g>
  <title>Layer 1</title>
  <path fill="#daa520" id="svg_1" d="m449.047,213.909c-16.572,0 -30.055,13.482 -30.055,30.054c0,4.694 3.806,8.5 8.5,8.5s8.5,-3.806 8.5,-8.5c0,-7.198 5.856,-13.054 13.055,-13.054c7.198,0 13.054,5.856 13.054,13.054c0,7.198 -5.855,13.054 -13.054,13.054l-48.788,0l0,-50.331c0,-64.648 -40.166,-120.089 -96.852,-142.688l15.325,0c15.403,0 27.936,-12.532 27.936,-27.936c0,-15.403 -12.532,-27.935 -27.936,-27.935c-15.403,0 -27.936,12.532 -27.936,27.935c0,4.694 3.806,8.5 8.5,8.5c4.694,0 8.5,-3.806 8.5,-8.5c0,-6.03 4.905,-10.935 10.936,-10.935c6.03,0 10.936,4.905 10.936,10.935c0,6.03 -4.905,10.936 -10.936,10.936l-43.432,0c2.307,-4.435 3.618,-9.466 3.618,-14.801c0,-17.754 -14.443,-32.197 -32.196,-32.197c-17.753,0 -32.197,14.443 -32.197,32.197c0,5.335 1.312,10.366 3.618,14.801l-43.433,0c-6.03,0 -10.936,-4.906 -10.936,-10.936c0,-6.03 4.906,-10.935 10.936,-10.935c6.03,0 10.936,4.905 10.936,10.935c0,4.694 3.806,8.5 8.5,8.5s8.5,-3.806 8.5,-8.5c0,-15.403 -12.532,-27.935 -27.936,-27.935c-15.404,0 -27.936,12.532 -27.936,27.935c0,15.404 12.532,27.936 27.936,27.936l15.326,0c-56.685,22.599 -96.851,78.039 -96.851,142.688l0,50.331l-48.787,0c-7.198,0 -13.054,-5.856 -13.054,-13.054c0,-7.198 5.856,-13.054 13.054,-13.054c7.198,0 13.054,5.856 13.054,13.054c0,4.694 3.806,8.5 8.5,8.5c4.694,0 8.5,-3.806 8.5,-8.5c0,-16.572 -13.482,-30.054 -30.054,-30.054c-16.572,0 -30.054,13.482 -30.054,30.054s13.482,30.054 30.054,30.054l48.788,0l0,166.107c-8.204,4.014 -13.869,12.445 -13.869,22.178l0,6.468c0,13.606 11.069,24.675 24.674,24.675l285.464,0c13.605,0 24.674,-11.069 24.674,-24.675l0,-6.468c0,-9.732 -5.665,-18.164 -13.869,-22.178l0,-166.107l48.788,0c16.571,0 30.054,-13.482 30.054,-30.054s-13.484,-30.054 -30.055,-30.054zm-65.788,-7.223l0,50.331l-50.667,0l0,-50.331c0,-40.11 -8.403,-77.953 -23.662,-106.557c-4.297,-8.056 -9.018,-15.138 -14.076,-21.211c51.606,19.504 88.405,69.415 88.405,127.768zm-128.036,230.941l0,-163.61l60.369,0l0,163.61l-60.369,0zm-17.001,-366.388l0,185.777l-60.37,0l0,-50.331c0,-68.316 26.874,-126.844 60.37,-135.446zm0,202.778l0,163.61l-60.37,0l0,-163.61l60.37,0zm17.001,-17l0,-185.778c33.496,8.601 60.369,67.129 60.369,135.446l0,50.331l-60.369,0l0,0.001zm-23.698,-224.82c0,-8.379 6.817,-15.197 15.197,-15.197s15.196,6.817 15.196,15.197c0,7.211 -5.053,13.252 -11.801,14.801l-6.79,0c-6.748,-1.549 -11.802,-7.59 -11.802,-14.801zm-121.339,174.489c0,-58.352 36.799,-108.262 88.405,-127.768c-5.059,6.073 -9.779,13.156 -14.077,21.211c-15.258,28.603 -23.662,66.446 -23.662,106.557l0,50.331l-50.666,0l0,-50.331zm50.666,67.331l0,163.61l-50.666,0l0,-163.61l50.666,0zm236.276,194.753c0,4.232 -3.442,7.675 -7.674,7.675l-285.464,0c-4.231,0 -7.674,-3.443 -7.674,-7.675l0,-6.468c0,-4.232 3.442,-7.675 7.674,-7.675l285.464,0c4.232,0 7.674,3.443 7.674,7.675l0,6.468zm-13.869,-31.143l-50.667,0l0,-163.61l50.667,0l0,163.61z"/>
 </g>
</svg>