<svg width="512" height="512" xmlns="http://www.w3.org/2000/svg">

 <g>
  <title>background</title>
  <rect fill="none" id="canvas_background" height="402" width="582" y="-1" x="-1"/>
 </g>
 <g>
  <title>Layer 1</title>
  <path fill="#ffffff" id="svg_3" d="m464.5,301.1l36.5,-178l-359.7,0l-12.5,-59.2l-108.4,-52.9l-9.4,18.7l99,47.8l50,238.8l289,0c0,0 28.5,17.9 17.5,40.5c-4.9,7 -12.5,15.6 -26.1,15.6l-287.6,0l0,20.6l287.7,0c19.8,0 36.5,-10.4 45.9,-27c18.4,-34.4 -21.9,-64.9 -21.9,-64.9zm-286.7,-5.7l-32.3,-151.6l330.5,0l-31.3,151.6l-266.9,0z"/>
  <path fill="#ffffff" id="svg_4" d="m212.2,422.1c-21.9,0 -39.6,17.6 -39.6,39.4s17.7,39.4 39.6,39.4s39.6,-17.6 39.6,-39.4s-17.7,-39.4 -39.6,-39.4zm0,58.1c-10.4,0 -18.8,-8.3 -18.8,-18.7s8.3,-18.7 18.8,-18.7s18.8,8.3 18.8,18.7s-8.4,18.7 -18.8,18.7z"/>
  <path fill="#ffffff" id="svg_5" d="m424.9,422.1c-21.9,0 -39.6,17.6 -39.6,39.4s17.7,39.5 39.6,39.5s40.7,-17.6 39.6,-39.4c0,-21.8 -17.7,-39.5 -39.6,-39.5zm18.8,39.5c0,10.4 -8.3,18.7 -18.8,18.7s-18.8,-8.3 -18.8,-18.7s8.3,-18.7 18.8,-18.7s19.8,8.3 18.8,18.7z"/>
 </g>
</svg>