<svg width="27.3" height="27.299" xmlns="http://www.w3.org/2000/svg">

 <g>
  <title>background</title>
  <rect fill="none" id="canvas_background" height="402" width="582" y="-1" x="-1"/>
 </g>
 <g>
  <title>Layer 1</title>
  <path fill="#daa520" id="svg_4" d="m12.171,25.303c-0.033,0 -0.066,-0.004 -0.099,-0.011c-0.117,-0.027 -0.219,-0.1 -0.283,-0.201c-0.744,-1.19 1.774,-3.053 7.697,-7.016c1.585,-1.062 3.523,-2.357 4.847,-3.372c-1.342,0.865 -3.15,2.076 -4.832,3.203c-7.479,5.009 -9.104,6 -9.658,5.88c-0.119,-0.025 -0.256,-0.119 -0.321,-0.223c-0.13,-0.207 -0.07,-0.48 0.135,-0.615c7.09,-4.639 14.379,-9.971 16.29,-12.188c-3.008,1.819 -11.817,7.386 -17.939,11.276c-0.102,0.063 -0.223,0.087 -0.341,0.059c-0.117,-0.025 -0.218,-0.099 -0.282,-0.199c-0.102,-0.163 -0.204,-0.438 -0.113,-0.824c0.111,-0.471 0.524,-1.051 1.174,-1.716c-0.692,0.44 -1.365,0.871 -2.009,1.283c-0.102,0.064 -0.224,0.085 -0.341,0.062c-0.118,-0.026 -0.219,-0.1 -0.283,-0.201c-0.08,-0.128 -0.161,-0.346 -0.087,-0.649c0.079,-0.325 0.392,-0.763 0.887,-1.276c-1.4,0.855 -1.607,0.889 -1.798,0.85c-0.118,-0.025 -0.231,-0.104 -0.295,-0.208c-1.213,-1.939 4.817,-6.407 15.643,-13.47c1.105,-0.722 2.173,-1.417 2.848,-1.88c-1.968,0.578 -7.316,4.057 -13.13,8.284c-1.332,1.009 -2.819,2.125 -4.477,3.362c-0.539,0.401 -1.039,0.774 -1.409,1.053c-0.218,0.169 -0.435,0.338 -0.652,0.507c-0.101,0.078 -0.231,0.105 -0.355,0.088c-0.125,-0.022 -0.236,-0.097 -0.303,-0.205c-0.117,-0.188 -0.174,-0.28 0.125,-0.568l-0.019,-0.024c0.686,-0.534 3.375,-2.618 6.632,-4.99c3.14,-2.377 6.822,-5.221 8.974,-7.086c-2.056,1.285 -5.099,3.229 -7.743,4.917c-8.807,5.625 -8.816,5.625 -9.111,5.553c-0.117,-0.025 -0.221,-0.1 -0.285,-0.201c-0.454,-0.727 0.433,-1.706 7.537,-7.215c0.784,-0.608 1.619,-1.255 2.302,-1.799c-1.768,1.063 -4.484,3.056 -6.181,4.301c-3.334,2.447 -3.805,2.745 -4.182,2.674c-0.123,-0.023 -0.254,-0.111 -0.321,-0.218c-0.438,-0.7 0.455,-1.41 4.807,-4.406c0.386,-0.267 0.809,-0.558 1.242,-0.858c-5.396,3.508 -5.78,3.627 -6.087,3.56c-0.118,-0.026 -0.234,-0.107 -0.299,-0.21c-0.201,-0.321 -0.261,-0.416 3.332,-3.715c-1.38,0.865 -2.456,1.422 -2.831,1.357c-0.122,-0.023 -0.287,-0.133 -0.353,-0.238c-0.143,-0.228 -0.442,-0.708 1.966,-3.322l0.141,-0.735l-0.089,0.441l-0.248,-0.374c0.025,-0.019 0.085,-0.066 0.169,-0.133c1.547,-1.231 1.979,-1.417 2.322,-1.361c0.126,0.021 0.294,0.131 0.362,0.239c0.112,0.18 0.084,0.413 -0.067,0.562c-1.322,1.291 -2.75,2.839 -3.397,3.731c1.37,-0.743 4.313,-2.733 6.947,-4.642c0.194,-0.141 0.463,-0.104 0.614,0.081s0.13,0.456 -0.047,0.616c-1.64,1.486 -3.85,3.505 -5.543,5.076c1.615,-1.026 3.542,-2.288 4.868,-3.157c2.87,-1.878 2.866,-1.873 3.088,-1.826c0.118,0.026 0.221,0.1 0.286,0.202c0.207,0.332 0.127,0.705 -0.342,1.24c0.757,-0.398 1.278,-0.561 1.617,-0.495c0.194,0.037 0.355,0.145 0.454,0.302c0.292,0.467 0.31,0.495 -3.976,3.818c-1.646,1.275 -3.982,3.087 -5.563,4.454c1.716,-1.078 4.138,-2.626 6.387,-4.062c10.202,-6.515 10.253,-6.5 10.556,-6.438c0.117,0.026 0.222,0.101 0.286,0.202c0.202,0.324 0.39,0.624 -1.927,2.66c2.175,-1.271 3.941,-2.06 4.743,-1.923c0.354,0.063 0.538,0.254 0.632,0.403c0.297,0.477 0.297,0.477 -3.804,3.151c-3.769,2.459 -14.718,9.602 -15.395,11.832c1.363,-0.768 5.405,-3.409 9.028,-5.777c10.113,-6.609 11.332,-7.298 11.775,-7.203c0.118,0.026 0.237,0.109 0.302,0.212c0.064,0.103 0.084,0.227 0.057,0.344c-0.028,0.117 -0.104,0.219 -0.206,0.28c-7.94,4.761 -16.12,10.209 -18.75,12.727c18.727,-11.975 19.006,-11.901 19.228,-11.846c0.117,0.026 0.224,0.101 0.287,0.203c0.064,0.102 0.085,0.229 0.058,0.348c-0.064,0.271 -0.065,0.277 -3.191,2.191c-4.188,2.563 -13.557,8.3 -15.399,10.882c18.056,-11.475 18.24,-11.429 18.479,-11.387c0.117,0.027 0.22,0.101 0.284,0.202c0.479,0.766 -1.133,2.523 -3.674,4.643c2.182,-1.418 2.559,-1.563 2.82,-1.508c0.119,0.025 0.239,0.108 0.305,0.212c0.608,0.975 -1.239,2.334 -6.674,5.97c-1.977,1.323 -4.898,3.277 -6.419,4.604c9.929,-6.338 10.069,-6.311 10.304,-6.266c0.116,0.026 0.221,0.1 0.284,0.201c0.133,0.211 0.068,0.487 -0.142,0.62c-0.041,0.024 -0.084,0.044 -0.128,0.056c-0.688,0.337 -7.196,4.46 -11.472,7.193c-0.08,0.046 -0.164,0.07 -0.249,0.07z"/>
 </g>
</svg>