<?xml version="1.0" encoding="iso-8859-1"?>
<!-- Generator: Adobe Illustrator 18.0.0, SVG Export Plug-In . SVG Version: 6.00 Build 0)  -->
<!DOCTYPE svg PUBLIC "-//W3C//DTD SVG 1.1//EN" "http://www.w3.org/Graphics/SVG/1.1/DTD/svg11.dtd">
<svg version="1.1" id="Capa_1" xmlns="http://www.w3.org/2000/svg" xmlns:xlink="http://www.w3.org/1999/xlink" x="0px" y="0px"
	 viewBox="0 0 456.117 456.117" style="enable-background:new 0 0 456.117 456.117;" xml:space="preserve">
<g>
	<path d="M455.619,389.25c3.13,22.05-8.8,46.72-27.9,58.43c-8.42,5.16-17.41,3.82-26.37,3.08c-3.58-0.3-7.1-1.34-10.63-2.11
		c-17.83-3.9-27.79-15.1-29.92-33.54c-4.31-37.3,16.39-59.15,46.91-65.75c5.37-1.16,7.5-3.74,7.46-8.71
		c-0.1-15.54,0.71-31.17-0.64-46.61c-3.68-42.08-8.23-84.1-12.55-126.13c-0.79-7.74-2.07-15.44-3.36-24.87
		c-6.44,13.8-26.68,97.42-26.57,108.54c1.02,0.53,2.17,1.43,3.47,1.76c17.49,4.52,28.25,17.56,29.45,35.56
		c1.04,15.41-1.24,29.4-13.89,40.27c-13.2,11.36-36.89,12.49-50.4,1.63c-6.28-5.06-8.8-12.27-10.18-19.81
		c-2.53-13.74,0.58-26.61,7.15-38.7c5.34-9.8,14.32-15.02,23.51-18.19c10.1-36.36,20-72.03,30.12-108.45
		c-1.84,0.64-3.78,1.05-5.45,1.95c-26.38,14.35-45.47,33.81-48.72,65.68c-2.01,19.71-3.83,39.77-9.07,58.76
		c-10.53,38.17-27.45,73.02-60.98,97.23c-17.44,12.58-36.82,20.09-57.86,22.99c-16.39,2.27-32.93,5.09-49.41-0.89
		c-2.56-0.93-7.11,0.95-9.59,2.96c-7.86,6.37-15.05,13.55-22.74,20.13c-4.1,3.5-8.43,6.93-13.16,9.46
		c-10.27,5.49-15.14,3.78-21.22-6.72c-6.03,3.81-11.83,8.02-18.12,11.34c-9.94,5.24-13.46,3.81-18.58-6.98
		c-9.91,8.09-19.47,16.35-29.56,23.9c-4.8,3.58-10.35,6.85-16.06,8.37c-7.83,2.08-12.5-3.62-10.15-11.49
		c1.02-3.42,2.82-6.66,4.64-9.77c10.99-18.81,24.12-36.01,38.96-51.97c23.15-24.89,46.09-49.98,69.17-74.94
		c8.84-9.56,17.82-18.99,26.7-28.52c1.41-1.51,2.62-3.21,5.31-6.55c-5.94,2.16-9.81,3.87-13.85,4.98
		c-13.45,3.69-19.64-1.85-17.37-15.38c0.28-1.7,0.8-3.37,1.57-6.51c-5.36,1.68-9.6,3.04-13.87,4.33c-1.38,0.42-2.8,0.72-4.23,0.97
		c-18.25,3.11-24.35-3.73-19.21-21.51c0.29-1.01,0.35-2.08,0.69-4.29c-5.17,1.54-9.79,2.96-14.43,4.29
		c-5.2,1.49-10.23,1.35-13.94-3.11c-3.93-4.73-1.62-9.63,0.59-14.22c1.38-2.87,3.28-5.5,5.59-9.3c-5.31-0.55-9.76-0.88-14.17-1.52
		c-4.27-0.61-8.7-0.99-12.7-2.47c-7.82-2.9-9.53-8.62-4.74-15.42c2.26-3.21,5.31-5.9,8.18-8.64c2.57-2.45,5.39-4.65,8.77-7.52
		c-5.42-3.07-10.5-5.44-15-8.62c-11.03-7.79-10.25-14.71,2.02-20.49c1.6-0.76,3.29-1.35,6.43-2.62c-3.7-3.34-6.92-6.1-9.97-9.04
		c-2.07-2-4.18-4.06-5.8-6.42c-8.72-12.71-5.01-20.97,10.19-23.06c1.02-0.14,2.02-0.5,4.04-1.02c-1.63-2.67-2.89-5.05-4.44-7.23
		c-7.38-10.37-9.05-21.94-6.98-34.15c1.43-8.42,4.99-10.06,12.98-6.63c9.05,3.89,17.14,9.07,24.21,16.1
		c6.62,6.58,13.95,12.45,21.57,19.16c3.65-5.75,5.13-9.57,0.7-15.11c-3.1-3.88-5.38-10.11-4.77-14.86
		c0.86-6.56-1.64-10.95-4.46-16.02c-3.84-6.89-7.34-14.02-10.35-21.31c-1.32-3.22-1.54-7.1-1.46-10.65
		c0.22-9.14,6.06-13.84,14.36-10.22c9.83,4.29,19.78,9.24,28.1,15.89c25.13,20.08,49.3,41.36,74.25,61.67
		c8.98,7.31,14.2,16.17,16.15,27.28c2.36,13.48,5.31,26.76,12.81,39.87c2.55-2.95,4.64-5.19,6.53-7.59
		c14.36-18.23,29.31-35.61,49.63-47.93c20.69-12.55,42.77-14.2,65.89-11.95c18.68,1.82,35.94,6.97,51.45,18.17
		c7.54,5.44,16.2,9.67,24.89,13.07c12.74,4.99,15.86,14.41,3.1,23.92c-1.72,1.29-3.57,2.41-5.2,3.5c2.25,15.54,4.78,30.79,6.6,46.13
		c4.75,39.82,9.48,79.64,13.57,119.53c1.33,12.92,0.89,26.03,0.85,39.05c-0.01,5.6,1.45,9.14,6.88,11.95
		C444.609,362.66,453.409,373.69,455.619,389.25z M446.49,400.16c1.66-17.04-4.72-29.33-20.88-38.43
		c-1.23,7.08-2.36,11.99,2.45,17.26c13.06,14.3,8.56,38.12-12.81,47.03c-14.36,5.99-33.01-4.01-34.16-18.17
		c-1.32-16.19,7.37-28.86,22.9-33.41c2.7-0.79,5.37-1.65,8.33-2.56c0.21-2.94,0.46-5.41,0.55-7.88c0.09-2.47,0.02-4.94,0.02-7.19
		c-1.44-0.43-2.18-0.92-2.77-0.79c-39.82,8.79-49.89,43.09-33.76,73.78c1.58,3,4.61,6.6,7.57,7.28c10.48,2.43,21.18,4.2,31.89,5.15
		c3.46,0.31,7.58-2.13,10.78-4.25C440.059,429.07,444.979,415.67,446.49,400.16z M426.849,398.28c0.27-10.17-8.43-19.24-18.48-19.28
		c-10.53-0.05-20.19,11.83-20.46,25.17c-0.18,8.44,8.08,15.68,18.29,16.02C416.669,420.54,426.539,410.07,426.849,398.28z
		 M402.02,127.37c-3.36-0.68-5.89,0.61-8.57,1.22c-8.77,1.99-17.54,4.19-26.43,5.41c-6.56,0.91-8.03-0.43-11.97-6.63
		c17.49,3.74,33.21,1.03,48.98-9.47c-16.73-8.36-32.05-16.02-47.75-23.87c-15.33,23.06-14.35,44.26,1.1,58.65
		C372.419,144.15,387.219,135.76,402.02,127.37z M384.439,322.88c12.82-10.49,14.51-28.39,9.93-41.58
		c-3.77-10.83-10.7-19.49-24.25-21.04c-0.7,3.38-1.34,6.44-2.06,9.88c1.74,0.37,3.09,0.74,4.47,0.93
		c10.96,1.56,17.08,8.18,16.11,18.94c-0.51,5.61-2.22,11.4-4.66,16.5c-5.1,10.65-17.44,13.92-27.61,8.01
		c-9.84-5.72-12.53-17.95-6.02-27.74c1.99-3,3.91-6.16,6.42-8.67c4.57-4.57,5.52-9.66,3.87-16.09c-1.71,0.49-3.22,0.58-4.35,1.28
		c-22.09,13.59-22.61,39.21-10.53,58.78c0.56,0.89,1.42,1.65,2.28,2.3C357.96,331.9,374.629,330.91,384.439,322.88z M377.299,301.9
		c1.85-4.24,2.82-8.86,3.64-11.52c-0.28-11.05-8.67-16.24-15.71-10.76c-4.54,3.53-8.15,9.16-10.33,14.6
		c-2.38,5.95,2.7,13.36,8.84,15.28C369.529,311.32,374.219,308.95,377.299,301.9z M350.309,92.91c-3.21-0.93-5.5-1.94-7.88-2.23
		c-7.53-0.9-15.11-1.35-22.63-2.3c-25.03-3.14-46.24,5.15-64.76,21.48c-21.05,18.55-34.72,42.93-51.71,64.01
		c4.73,7.41,13.62,9.44,17.53,19.26c-4.91-1.96-8.45-2.69-11.21-4.57c-14-9.56-28.18-18.93-41.58-29.29
		c-16.38-12.65-32.92-24.68-52.47-32.18c-7-2.69-13.93-6.43-19.79-11.08c-16.68-13.25-32.78-27.23-49.14-40.89
		c-3.6-3.02-7.2-6.05-10.98-8.83c-1.77-1.3-3.97-2.04-6.63-3.36c-0.9,11.86,2.09,21.43,9.19,29.18c6.32,6.89,13.57,12.94,20.46,19.3
		c4.25,3.92,8.93,7.43,12.77,11.7c1.51,1.68,2.57,5.85,1.56,7.29c-2.2,3.15-5.73,2.05-8.53-0.25c-1.96-1.6-3.71-3.47-5.79-4.9
		c-5.04-3.48-9.96-7.3-15.42-9.95c-3.75-1.81-8.33-2.52-12.55-2.61c-6.02-0.12-7.47,3.4-3.92,8.46c1.03,1.45,2.26,2.95,3.74,3.88
		c8.22,5.16,16.5,10.24,24.88,15.14c2.78,1.62,6.47,2,8.73,4.07c2.02,1.85,4,5.48,3.56,7.88c-0.65,3.53-4.42,4.33-7.97,3.33
		c-2.09-0.59-4.08-1.7-6.19-1.94c-7.98-0.9-16.16-2.6-24.74,3.85c4.45,2.47,7.61,4.95,11.2,6.04c5.49,1.65,11.24,2.54,16.93,3.38
		c4.22,0.62,7.62,1.78,8.68,7.5c-2.44,1.34-4.96,2.5-7.24,4.02c-6.61,4.38-13.23,8.76-19.58,13.5c-1.66,1.24-2.36,3.77-4.45,7.3
		c11.08,0.22,20.28,1.17,29.56-0.85c3.13-0.68,6.5-1.09,9.64-0.68c4.32,0.55,6.15,4.71,3.67,7.98c-1.72,2.26-4.22,3.92-6.27,5.96
		c-4.5,4.49-8.49,9.31-11.14,17.82c6.74-2.57,11.34-4.28,15.92-6.07c5.38-2.1,10.62-4.68,16.16-6.2c2.3-0.63,5.67,0.33,7.62,1.81
		c0.88,0.66-0.16,4.54-1.05,6.64c-0.96,2.28-2.95,4.1-4.18,6.3c-2.93,5.19-6.43,10.23-6.1,17.76c4.12-0.57,7.83-0.43,11.03-1.64
		c7.74-2.93,15.31-6.34,22.81-9.85c3.33-1.56,6.67-3.98,10-1.16c3.79,3.21,0.78,6.48-0.88,9.63c-1.52,2.88-3.3,5.74-4.09,8.83
		c-0.9,3.53-4.13,7.07-0.85,11.39c8.34-1.12,14.36-6.46,20.81-10.96c3.38-2.36,5.7-7.6,10.84-5.44c5.46,2.3,2.53,7.6,2.89,11.61
		c0.72,8.02,3.74,10.92,11.96,10.19c5.74-0.51,11.41-1.85,17.15-2.49c3.24-0.36,6.54-0.06,11.06-0.06
		c-15.61,13.72-32.28,15.9-47.89,7.08c-5.2,6.38-10.16,13.05-15.72,19.18c-23.3,25.74-46.82,51.27-70.17,76.96
		c-16.54,18.18-33.84,35.75-46.42,57.14c-1.73,2.95-3.31,5.99-6,10.89c37.23-23.59,63.81-55.96,96.23-81.63
		c-2.3,11.53-9.13,20.14-17.15,27.89c-6.5,6.28-13.37,12.17-20.09,18.23c-4.2,3.78-7.4,7.92-5.14,15.09c3.29-2.15,6.5-3.74,9.1-6.02
		c10.85-9.55,21.48-19.34,32.26-28.96c7.27-6.49,14.57-12.96,22.08-19.17c1.57-1.3,4.11-1.42,6.2-2.09
		c-1.74,6.18-4.21,11.07-7.72,15.04c-7.42,8.39-15.1,16.59-23.21,24.31c-4.74,4.52-6.45,8.88-3.39,16.01
		c4.21-2.72,8.06-4.67,11.25-7.4c6.87-5.87,13.38-12.17,20.08-18.25c6.7-6.08,13.28-12.38,22.01-13.66
		c4.79,1.43,9.09,2.72,12.94,3.87c3.06-12.2,5.83-23.27,8.6-34.34c0.7,0.15,1.4,0.3,2.09,0.46c-2.17,10.81-4.35,21.62-6.63,32.98
		c4.2,0,7.51,0,10.71,0c1.66-15.11,4.38-29.07,11.43-42.08c-2.39,13.66-4.78,27.33-7.41,42.37c6.82-0.75,11.99-1.32,16.57-1.83
		c2.74-13.3,5.29-25.66,7.84-38.02c0.62,0.12,1.23,0.24,1.85,0.36c-1.85,11.89-3.7,23.78-5.77,37.12c5.15-1.3,8.46-2.14,10.95-2.77
		c2.96-13.78,5.66-26.39,8.37-38.99c1.44,12.43-4.31,24.05-2.14,37.3c4.28-1.55,7.92-2.87,11.05-4.01c2.08-14.57,4.04-28.27,6-41.97
		c0.74,0.09,1.48,0.19,2.22,0.28c-1.34,12.62-2.68,25.24-4.13,38.79c8.75-2.49,12.95-5.83,13.64-14.45
		c0.98-12.39,4.02-24.62,6.19-36.92c1.94,13.55-3.99,26.53-2.28,41.18c9.26-5.83,15.62-11.06,15.08-22.57
		c-0.5-10.72,1.66-21.58,2.83-32.37c0.26-2.37,1.28-4.66,1.95-7c0.56,0.1,1.11,0.2,1.66,0.3c-0.8,14.14-1.6,28.27-2.41,42.41
		c0.73,0.21,1.46,0.42,2.18,0.62c10.74-13.86,19.63-28.77,24.85-45.79c-0.05-0.03-0.09-0.06-0.13-0.08
		c2.03-2.63,4.69-5.04,5.71-8.01c2.68-7.83,5.13-15.84,6.59-23.97c3.26-18.12,5.69-36.38,8.74-54.54
		c3.19-18.94,9.28-36.51,26.1-49.04C331.079,138,338.479,115.7,350.309,92.91z M193.289,166.99c3.04-4.15,5.73-7.82,8.34-11.38
		c-10.39-13.97-16.72-28.68-19.13-45.18c-1.1-7.53-3.6-14.76-10.07-19.83c-7.12-5.58-14.21-11.2-21.12-17.02
		c-18.26-15.35-36.56-30.66-54.54-46.33c-7.16-6.24-14.67-11.46-24.6-14.71c-1.04,10.26,2.4,18.3,8.12,25.55
		c5.34,6.79,8.8,13.81,7.03,22.97c-0.59,3.1,0.53,7.82,2.7,9.9c6.01,5.79,8.31,11.97,6.38,20.52c4.47-6.63,8.93-13.27,13.39-19.9
		c0.62,0.44,1.24,0.87,1.85,1.31c-3.5,5.8-7.08,11.55-10.5,17.4c-4.46,7.63-4.4,7.73,2.92,14.71c2.05-2.33,4.1-4.66,6.15-6.99
		c0.32,0.29,0.64,0.58,0.96,0.87c-1.58,3.46-3.17,6.92-4.96,10.84c2.95,1.69,5.37,3.08,7.55,4.33c6.68-8.86,13.04-17.3,19.41-25.74
		c0.75,0.52,1.51,1.04,2.26,1.56c-5.7,8.5-11.41,17-17.49,26.04c6.47,2.84,12.31,5.4,18.5,8.11c3.39-4.39,6.37-8.44,9.55-12.32
		c3.09-3.77,5.41-8.33,9.24-11.39c0.55,0.48,1.09,0.95,1.64,1.42c-5.39,7.96-10.77,15.92-16.48,24.37c3.42,2.08,6.09,3.7,8.79,5.35
		c5.08-5.59,9.82-10.79,14.56-15.99c0.53,0.38,1.07,0.76,1.61,1.14c-3.86,5.73-7.71,11.47-11.8,17.58c3.2,2.32,5.78,4.18,8.54,6.17
		c2.48-2.25,4.72-4.27,6.95-6.29c0.43,0.28,0.86,0.56,1.29,0.84c-1.24,2.72-2.48,5.45-3.85,8.48
		C175.329,151.18,183.949,158.77,193.289,166.99z"/>
	<path style="fill:#FBB03B;" d="M425.609,361.73c16.16,9.1,22.54,21.39,20.88,38.43c-1.51,15.51-6.43,28.91-19.89,37.82
		c-3.2,2.12-7.32,4.56-10.78,4.25c-10.71-0.95-21.41-2.72-31.89-5.15c-2.96-0.68-5.99-4.28-7.57-7.28
		c-16.13-30.69-6.06-64.99,33.76-73.78c0.59-0.13,1.33,0.36,2.77,0.79c0,2.25,0.07,4.72-0.02,7.19c-0.09,2.47-0.34,4.94-0.55,7.88
		c-2.96,0.91-5.63,1.77-8.33,2.56c-15.53,4.55-24.22,17.22-22.9,33.41c1.15,14.16,19.8,24.16,34.16,18.17
		c21.37-8.91,25.87-32.73,12.81-47.03C423.249,373.72,424.379,368.81,425.609,361.73z"/>
	<path style="fill:#F15A24;" d="M393.449,128.59c2.68-0.61,5.21-1.9,8.57-1.22c-14.8,8.39-29.6,16.78-44.64,25.31
		c-15.45-14.39-16.43-35.59-1.1-58.65c15.7,7.85,31.02,15.51,47.75,23.87c-15.77,10.5-31.49,13.21-48.98,9.47
		c3.94,6.2,5.41,7.54,11.97,6.63C375.909,132.78,384.68,130.58,393.449,128.59z M370.49,110c-3.16-1.65-5.04-3.2-7.07-3.44
		c-1.07-0.13-2.41,2.01-3.64,3.13c1.63,1.56,3.03,3.77,4.95,4.41C365.759,114.45,367.699,112.09,370.49,110z"/>
	<path style="fill:#FBB03B;" d="M394.369,281.3c4.58,13.19,2.89,31.09-9.93,41.58c-9.81,8.03-26.48,9.02-36.4,1.5
		c-0.86-0.65-1.72-1.41-2.28-2.3c-12.08-19.57-11.56-45.19,10.53-58.78c1.13-0.7,2.64-0.79,4.35-1.28
		c1.65,6.43,0.7,11.52-3.87,16.09c-2.51,2.51-4.43,5.67-6.42,8.67c-6.51,9.79-3.82,22.02,6.02,27.74
		c10.17,5.91,22.51,2.64,27.61-8.01c2.44-5.1,4.15-10.89,4.66-16.5c0.97-10.76-5.15-17.38-16.11-18.94
		c-1.38-0.19-2.73-0.56-4.47-0.93c0.72-3.44,1.36-6.5,2.06-9.88C383.669,261.81,390.599,270.47,394.369,281.3z"/>
	<path d="M363.419,106.56c2.03,0.24,3.91,1.79,7.07,3.44c-2.79,2.09-4.73,4.45-5.76,4.1c-1.92-0.64-3.32-2.85-4.95-4.41
		C361.009,108.57,362.349,106.43,363.419,106.56z"/>
	<path style="fill:#FFC7AC;" d="M306.589,285.85c-0.67,2.99-5.68,6.13-1.48,9.09c-0.03,0.19-0.06,0.39-0.09,0.58v0.01l0.02-0.02
		c0.09-0.06,0.44-0.32,0.44-0.32c-5.22,17.02-14.11,31.93-24.85,45.79c-0.72-0.2-1.45-0.41-2.18-0.62
		c0.81-14.14,1.61-28.27,2.41-42.41c-0.55-0.1-1.1-0.2-1.66-0.3c-0.67,2.34-1.69,4.63-1.95,7c-1.17,10.79-3.33,21.65-2.83,32.37
		c0.54,11.51-5.82,16.74-15.08,22.57c-1.71-14.65,4.22-27.63,2.28-41.18c-2.17,12.3-5.21,24.53-6.19,36.92
		c-0.69,8.62-4.89,11.96-13.64,14.45c1.45-13.55,2.79-26.17,4.13-38.79c-0.74-0.09-1.48-0.19-2.22-0.28
		c-1.96,13.7-3.92,27.4-6,41.97c-3.13,1.14-6.77,2.46-11.05,4.01c-2.17-13.25,3.58-24.87,2.14-37.3
		c-2.71,12.6-5.41,25.21-8.37,38.99c-2.49,0.63-5.8,1.47-10.95,2.77c2.07-13.34,3.92-25.23,5.77-37.12
		c-0.62-0.12-1.23-0.24-1.85-0.36c-2.55,12.36-5.1,24.72-7.84,38.02c-4.58,0.51-9.75,1.08-16.57,1.83
		c2.63-15.04,5.02-28.71,7.41-42.37c-7.05,13.01-9.77,26.97-11.43,42.08c-3.2,0-6.51,0-10.71,0c2.28-11.36,4.46-22.17,6.63-32.98
		c-0.69-0.16-1.39-0.31-2.09-0.46c-2.77,11.07-5.54,22.14-8.6,34.34c-3.85-1.15-8.15-2.44-12.94-3.87
		c-8.73,1.28-15.31,7.58-22.01,13.66c-6.7,6.08-13.21,12.38-20.08,18.25c-3.19,2.73-7.04,4.68-11.25,7.4
		c-3.06-7.13-1.35-11.49,3.39-16.01c8.11-7.72,15.79-15.92,23.21-24.31c3.51-3.97,5.98-8.86,7.72-15.04
		c-2.09,0.67-4.63,0.79-6.2,2.09c-7.51,6.21-14.81,12.68-22.08,19.17c-10.78,9.62-21.41,19.41-32.26,28.96
		c-2.6,2.28-5.81,3.87-9.1,6.02c-2.26-7.17,0.94-11.31,5.14-15.09c6.72-6.06,13.59-11.95,20.09-18.23
		c8.02-7.75,14.85-16.36,17.15-27.89c-32.42,25.67-59,58.04-96.23,81.63c2.69-4.9,4.27-7.94,6-10.89
		c12.58-21.39,29.88-38.96,46.42-57.14c23.35-25.69,46.87-51.22,70.17-76.96c5.56-6.13,10.52-12.8,15.72-19.18
		c15.61,8.82,32.28,6.64,47.89-7.08c-4.52,0-7.82-0.3-11.06,0.06c-5.74,0.64-11.41,1.98-17.15,2.49
		c-8.22,0.73-11.24-2.17-11.96-10.19c-0.36-4.01,2.57-9.31-2.89-11.61c-5.14-2.16-7.46,3.08-10.84,5.44
		c-6.45,4.5-12.47,9.84-20.81,10.96c-3.28-4.32-0.05-7.86,0.85-11.39c0.79-3.09,2.57-5.95,4.09-8.83c1.66-3.15,4.67-6.42,0.88-9.63
		c-3.33-2.82-6.67-0.4-10,1.16c-7.5,3.51-15.07,6.92-22.81,9.85c-3.2,1.21-6.91,1.07-11.03,1.64c-0.33-7.53,3.17-12.57,6.1-17.76
		c1.23-2.2,3.22-4.02,4.18-6.3c0.89-2.1,1.93-5.98,1.05-6.64c-1.95-1.48-5.32-2.44-7.62-1.81c-5.54,1.52-10.78,4.1-16.16,6.2
		c-4.58,1.79-9.18,3.5-15.92,6.07c2.65-8.51,6.64-13.33,11.14-17.82c2.05-2.04,4.55-3.7,6.27-5.96c2.48-3.27,0.65-7.43-3.67-7.98
		c-3.14-0.41-6.51,0-9.64,0.68c-9.28,2.02-18.48,1.07-29.56,0.85c2.09-3.53,2.79-6.06,4.45-7.3c6.35-4.74,12.97-9.12,19.58-13.5
		c2.28-1.52,4.8-2.68,7.24-4.02c-1.06-5.72-4.46-6.88-8.68-7.5c-5.69-0.84-11.44-1.73-16.93-3.38c-3.59-1.09-6.75-3.57-11.2-6.04
		c8.58-6.45,16.76-4.75,24.74-3.85c2.11,0.24,4.1,1.35,6.19,1.94c3.55,1,7.32,0.2,7.97-3.33c0.44-2.4-1.54-6.03-3.56-7.88
		c-2.26-2.07-5.95-2.45-8.73-4.07c-8.38-4.9-16.66-9.98-24.88-15.14c-1.48-0.93-2.71-2.43-3.74-3.88c-3.55-5.06-2.1-8.58,3.92-8.46
		c4.22,0.09,8.8,0.8,12.55,2.61c5.46,2.65,10.38,6.47,15.42,9.95c2.08,1.43,3.83,3.3,5.79,4.9c2.8,2.3,6.33,3.4,8.53,0.25
		c1.01-1.44-0.05-5.61-1.56-7.29c-3.84-4.27-8.52-7.78-12.77-11.7c-6.89-6.36-14.14-12.41-20.46-19.3
		c-7.1-7.75-10.09-17.32-9.19-29.18c2.66,1.32,4.86,2.06,6.63,3.36c3.78,2.78,7.38,5.81,10.98,8.83
		c16.36,13.66,32.46,27.64,49.14,40.89c5.86,4.65,12.79,8.39,19.79,11.08c19.55,7.5,36.09,19.53,52.47,32.18
		c13.4,10.36,27.58,19.73,41.58,29.29c2.76,1.88,6.3,2.61,11.21,4.57c-3.91-9.82-12.8-11.85-17.53-19.26
		c16.99-21.08,30.66-45.46,51.71-64.01c18.52-16.33,39.73-24.62,64.76-21.48c7.52,0.95,15.1,1.4,22.63,2.3
		c2.38,0.29,4.67,1.3,7.88,2.23c-11.83,22.79-19.23,45.09,2.18,66.64c-16.82,12.53-22.91,30.1-26.1,49.04
		c-3.05,18.16-5.48,36.42-8.74,54.54c-1.46,8.13-3.91,16.14-6.59,23.97c-1.02,2.97-3.68,5.38-5.71,8.01
		c-0.09-0.06-0.17-0.11-0.24-0.17C305.609,291.91,306.099,288.88,306.589,285.85z M324.319,116.13c0.74-5.61-3.95-11.34-9.93-12.14
		c-5.87-0.78-11.74,3.92-12.15,9.73c-0.39,5.42,3.87,9.95,10.07,10.69C318.339,125.13,323.619,121.5,324.319,116.13z
		 M290.359,312.97c1.53-10.92,3.05-21.84,4.58-32.76c-0.85-0.12-1.7-0.25-2.55-0.37c-0.1,11.13-4.6,21.61-4.48,32.76
		C288.719,312.72,289.539,312.85,290.359,312.97z M154.029,220.7c8.16,5.24,16.16,5.02,20.76-1.35c-5.04-1.44-9.88-2.46-14.45-4.2
		c-5.75-2.19-6.92-6.06-3.29-10.97c1.62-2.2,4.29-3.63,6.5-5.39c1.47-1.16,2.96-2.29,4.98-3.86c-8.33-6.67-21.17-0.58-26.29-11.64
		c2.68-8.07,9.71-10.05,16.76-12.63c-6.73-2.95-12.16-0.55-16.99,3.68c-7.27,6.38-6.72,13.47,1.48,18.49
		c2.9,1.78,6.11,3.04,9.19,4.55C145.989,210.15,146.419,215.82,154.029,220.7z M118.989,220.2c8.02,4.88,17.8,3.9,24.9-3.25
		c-6.29-0.69-11.94-0.94-17.44-2c-6.79-1.29-8.4-6.82-3.55-11.68c1.89-1.91,4.38-3.22,7.95-5.77c-3.56-1.38-5.65-2.43-7.86-3.01
		c-5.22-1.37-10.7-2-15.72-3.87c-7.74-2.87-8.74-7.2-2.36-12.64c3.85-3.29,9.35-4.7,14.19-6.76c1.96-0.83,4.15-1.16,6.23-1.71
		c0-0.82,0.01-1.63,0.01-2.44c-3.3-0.85-6.69-1.46-9.88-2.61c-6.07-2.18-12.42-3.99-17.9-7.23c-5.36-3.16-4.94-7.43,0.25-11.14
		c6.52-4.66,13.59-4.18,20.62-1.36c3.85,1.55,7.49,3.59,11.91,5.73c-6.55-14.5-28.98-15.73-37.81-7.96
		c-7.16,6.29-7.51,13.01,0.03,19.01c3.52,2.8,7.53,4.99,12.78,8.41c-2.72,1.97-4.82,2.95-6.18,4.56c-8.08,9.57-6.2,16.99,5.42,21.8
		c3.57,1.48,7.27,2.66,10.84,3.95C112.119,212.33,112.939,216.51,118.989,220.2z"/>
	<path d="M314.389,103.99c5.98,0.8,10.67,6.53,9.93,12.14c-0.7,5.37-5.98,9-12.01,8.28c-6.2-0.74-10.46-5.27-10.07-10.69
		C302.649,107.91,308.52,103.21,314.389,103.99z"/>
	<path d="M306.589,285.85c-0.49,3.03-0.98,6.06-1.48,9.09C300.909,291.98,305.919,288.84,306.589,285.85z"/>
	<path d="M305.479,295.19c0,0-0.35,0.26-0.44,0.32c0.1-0.14,0.2-0.27,0.31-0.4C305.389,295.13,305.43,295.16,305.479,295.19z"/>
	<path d="M305.349,295.11c-0.11,0.13-0.21,0.26-0.31,0.4c-0.01,0.01-0.02,0.01-0.02,0.01c0.03-0.19,0.06-0.39,0.09-0.58
		C305.18,295,305.259,295.05,305.349,295.11z"/>
	<path d="M305.039,295.51l-0.02,0.02v-0.01C305.02,295.52,305.029,295.52,305.039,295.51z"/>
	<path d="M294.939,280.21c-1.53,10.92-3.05,21.84-4.58,32.76c-0.82-0.12-1.64-0.25-2.45-0.37c-0.12-11.15,4.38-21.63,4.48-32.76
		C293.24,279.96,294.089,280.09,294.939,280.21z"/>
	<path style="fill:#FFC7AC;" d="M201.629,155.61c-2.61,3.56-5.3,7.23-8.34,11.38c-9.34-8.22-17.96-15.81-26.81-23.61
		c1.37-3.03,2.61-5.76,3.85-8.48c-0.43-0.28-0.86-0.56-1.29-0.84c-2.23,2.02-4.47,4.04-6.95,6.29c-2.76-1.99-5.34-3.85-8.54-6.17
		c4.09-6.11,7.94-11.85,11.8-17.58c-0.54-0.38-1.08-0.76-1.61-1.14c-4.74,5.2-9.48,10.4-14.56,15.99c-2.7-1.65-5.37-3.27-8.79-5.35
		c5.71-8.45,11.09-16.41,16.48-24.37c-0.55-0.47-1.09-0.94-1.64-1.42c-3.83,3.06-6.15,7.62-9.24,11.39
		c-3.18,3.88-6.16,7.93-9.55,12.32c-6.19-2.71-12.03-5.27-18.5-8.11c6.08-9.04,11.79-17.54,17.49-26.04
		c-0.75-0.52-1.51-1.04-2.26-1.56c-6.37,8.44-12.73,16.88-19.41,25.74c-2.18-1.25-4.6-2.64-7.55-4.33
		c1.79-3.92,3.38-7.38,4.96-10.84c-0.32-0.29-0.64-0.58-0.96-0.87c-2.05,2.33-4.1,4.66-6.15,6.99c-7.32-6.98-7.38-7.08-2.92-14.71
		c3.42-5.85,7-11.6,10.5-17.4c-0.61-0.44-1.23-0.87-1.85-1.31c-4.46,6.63-8.92,13.27-13.39,19.9c1.93-8.55-0.37-14.73-6.38-20.52
		c-2.17-2.08-3.29-6.8-2.7-9.9c1.77-9.16-1.69-16.18-7.03-22.97c-5.72-7.25-9.16-15.29-8.12-25.55c9.93,3.25,17.44,8.47,24.6,14.71
		c17.98,15.67,36.28,30.98,54.54,46.33c6.91,5.82,14,11.44,21.12,17.02c6.47,5.07,8.97,12.3,10.07,19.83
		C184.909,126.93,191.239,141.64,201.629,155.61z M137.759,106.35c1.78-2.01,3.55-4.02,5.32-6.03c-0.54-0.38-1.08-0.76-1.63-1.14
		c-1.51,2.13-3.02,4.26-4.53,6.38c-3.92,2.37-6.02,5.85-5.6,10.99C133.469,113.15,135.619,109.75,137.759,106.35z"/>
	<path d="M174.789,219.35c-4.6,6.37-12.6,6.59-20.76,1.35c-7.61-4.88-8.04-10.55-1.35-23.32c-3.08-1.51-6.29-2.77-9.19-4.55
		c-8.2-5.02-8.75-12.11-1.48-18.49c4.83-4.23,10.26-6.63,16.99-3.68c-7.05,2.58-14.08,4.56-16.76,12.63
		c5.12,11.06,17.96,4.97,26.29,11.64c-2.02,1.57-3.51,2.7-4.98,3.86c-2.21,1.76-4.88,3.19-6.5,5.39c-3.63,4.91-2.46,8.78,3.29,10.97
		C164.909,216.89,169.749,217.91,174.789,219.35z"/>
	<path d="M143.079,100.32c-1.77,2.01-3.54,4.02-5.32,6.03c-0.28-0.26-0.56-0.53-0.84-0.79c1.51-2.12,3.02-4.25,4.53-6.38
		C141.999,99.56,142.539,99.94,143.079,100.32z"/>
	<path d="M137.759,106.35c-2.14,3.4-4.29,6.8-6.44,10.2c-0.42-5.14,1.68-8.62,5.6-10.99
		C137.199,105.82,137.479,106.09,137.759,106.35z"/>
	<path d="M143.889,216.95c-7.1,7.15-16.88,8.13-24.9,3.25c-6.05-3.69-6.87-7.87-3.57-19.97c-3.57-1.29-7.27-2.47-10.84-3.95
		c-11.62-4.81-13.5-12.23-5.42-21.8c1.36-1.61,3.46-2.59,6.18-4.56c-5.25-3.42-9.26-5.61-12.78-8.41c-7.54-6-7.19-12.72-0.03-19.01
		c8.83-7.77,31.26-6.54,37.81,7.96c-4.42-2.14-8.06-4.18-11.91-5.73c-7.03-2.82-14.1-3.3-20.62,1.36
		c-5.19,3.71-5.61,7.98-0.25,11.14c5.48,3.24,11.83,5.05,17.9,7.23c3.19,1.15,6.58,1.76,9.88,2.61c0,0.81-0.01,1.62-0.01,2.44
		c-2.08,0.55-4.27,0.88-6.23,1.71c-4.84,2.06-10.34,3.47-14.19,6.76c-6.38,5.44-5.38,9.77,2.36,12.64c5.02,1.87,10.5,2.5,15.72,3.87
		c2.21,0.58,4.3,1.63,7.86,3.01c-3.57,2.55-6.06,3.86-7.95,5.77c-4.85,4.86-3.24,10.39,3.55,11.68
		C131.949,216.01,137.599,216.26,143.889,216.95z"/>
</g>
<g>
</g>
<g>
</g>
<g>
</g>
<g>
</g>
<g>
</g>
<g>
</g>
<g>
</g>
<g>
</g>
<g>
</g>
<g>
</g>
<g>
</g>
<g>
</g>
<g>
</g>
<g>
</g>
<g>
</g>
</svg>
