<svg width="166" height="55" xmlns="http://www.w3.org/2000/svg">

 <g>
  <title>background</title>
  <rect fill="none" id="canvas_background" height="402" width="582" y="-1" x="-1"/>
 </g>
 <g>
  <title>Layer 1</title>
  <path id="svg_1" d="m166.001,43.574c0,0.42 0,0.827 -0.006,1.247c-0.032,0.907 -0.086,1.814 -0.257,2.709c-0.157,0.907 -0.433,1.757 -0.858,2.578c-0.427,0.805 -0.977,1.548 -1.637,2.184c-0.655,0.646 -1.413,1.184 -2.241,1.595c-0.853,0.423 -1.716,0.69 -2.645,0.853c-0.912,0.162 -1.843,0.215 -2.771,0.24c-0.422,0.009 -0.855,0.014 -1.278,0.014c-0.498,0.003 -1.004,0.003 -1.502,0.003l-139.41,0c-0.508,0 -1.01,0 -1.517,-0.003c-0.424,0 -0.845,-0.005 -1.274,-0.014c-0.922,-0.025 -1.856,-0.078 -2.777,-0.24c-0.927,-0.163 -1.789,-0.43 -2.634,-0.853c-0.829,-0.411 -1.587,-0.949 -2.243,-1.595c-0.663,-0.636 -1.212,-1.379 -1.633,-2.184c-0.431,-0.821 -0.704,-1.671 -0.866,-2.578c-0.167,-0.895 -0.224,-1.802 -0.248,-2.709c-0.013,-0.42 -0.014,-0.827 -0.021,-1.247c0,-0.492 0,-0.981 0,-1.481l0,-29.176c0,-0.495 0,-0.988 0,-1.477c0.007,-0.416 0.008,-0.832 0.021,-1.247c0.024,-0.906 0.081,-1.813 0.248,-2.709c0.162,-0.906 0.435,-1.752 0.866,-2.576c0.421,-0.81 0.97,-1.552 1.633,-2.194c0.656,-0.64 1.414,-1.18 2.243,-1.594c0.845,-0.419 1.707,-0.69 2.634,-0.849c0.921,-0.161 1.855,-0.216 2.777,-0.239c0.429,-0.006 0.85,-0.014 1.274,-0.018c0.507,-0.002 1.009,-0.002 1.517,-0.002l139.41,0c0.498,0 1.004,0 1.502,0.002c0.423,0.004 0.856,0.012 1.278,0.018c0.928,0.023 1.859,0.078 2.771,0.239c0.929,0.159 1.792,0.43 2.645,0.849c0.828,0.414 1.586,0.954 2.241,1.594c0.66,0.642 1.21,1.384 1.637,2.194c0.425,0.824 0.701,1.67 0.858,2.576c0.171,0.896 0.225,1.803 0.257,2.709c0.006,0.415 0.006,0.831 0.006,1.247c0.011,0.489 0.011,0.982 0.011,1.477l0,29.176c0,0.5 0,0.989 -0.011,1.481zm-1.199,-30.657c0,-0.487 0,-0.971 -0.011,-1.477c0,-0.41 0,-0.822 -0.004,-1.206c-0.03,-0.822 -0.08,-1.7 -0.241,-2.553c-0.141,-0.808 -0.385,-1.539 -0.742,-2.232c-0.376,-0.712 -0.851,-1.35 -1.418,-1.9c-0.567,-0.555 -1.218,-1.019 -1.928,-1.374c-0.726,-0.357 -1.481,-0.599 -2.316,-0.741c-0.919,-0.162 -1.865,-0.204 -2.575,-0.22l-1.266,-0.018l-142.415,0l-1.25,0.017c-0.72,0.017 -1.666,0.059 -2.599,0.222c-0.829,0.142 -1.58,0.383 -2.291,0.736c-0.718,0.359 -1.371,0.823 -1.944,1.384c-0.566,0.547 -1.038,1.181 -1.407,1.891c-0.359,0.687 -0.604,1.419 -0.753,2.249c-0.167,0.902 -0.211,1.825 -0.229,2.534c-0.008,0.274 -0.02,1.211 -0.02,1.211l0,32.115c0,0 0.011,0.951 0.02,1.236c0.018,0.703 0.062,1.627 0.231,2.537c0.147,0.827 0.393,1.56 0.752,2.243c0.369,0.708 0.841,1.34 1.414,1.89c0.564,0.555 1.214,1.017 1.936,1.375c0.699,0.349 1.45,0.593 2.296,0.742c0.897,0.157 1.816,0.2 2.59,0.22c0.419,0.01 0.831,0.015 1.253,0.015l140.921,0.002l1.502,-0.002c0.413,0 0.838,-0.005 1.244,-0.015c0.783,-0.02 1.702,-0.063 2.59,-0.22c0.859,-0.15 1.593,-0.388 2.312,-0.744c0.717,-0.357 1.366,-0.818 1.939,-1.384c0.559,-0.537 1.034,-1.172 1.407,-1.875c0.361,-0.697 0.605,-1.43 0.749,-2.26c0.158,-0.835 0.208,-1.711 0.237,-2.508c0.005,-0.415 0.005,-0.818 0.005,-1.258c0.011,-0.484 0.011,-0.964 0.011,-1.456l0,-29.176zm-13.777,23.697c-1.289,1.883 -2.641,3.722 -4.786,3.756c-2.084,0.047 -2.784,-1.197 -5.174,-1.197c-2.413,0 -3.16,1.163 -5.159,1.244c-2.042,0.074 -3.603,-2.01 -4.939,-3.875c-2.67,-3.809 -4.749,-10.734 -1.962,-15.445c1.351,-2.311 3.814,-3.799 6.446,-3.839c2.045,-0.041 3.943,1.348 5.2,1.348c1.233,0 3.579,-1.662 5.999,-1.414c1.012,0.028 3.894,0.391 5.752,3.037c-0.15,0.088 -3.432,1.971 -3.396,5.843c0.041,4.64 4.157,6.173 4.207,6.19c-0.025,0.107 -0.645,2.214 -2.188,4.352zm-10.62,-19.773c-0.229,-1.744 0.657,-3.599 1.648,-4.73c1.12,-1.285 3.066,-2.269 4.622,-2.336c0.205,1.813 -0.531,3.599 -1.606,4.912c-1.122,1.293 -2.916,2.281 -4.664,2.154zm-32.147,18.238c0,2.096 1.348,3.47 3.376,3.47c1.43,0 2.552,-0.663 2.897,-1.723l2.445,0c-0.346,2.225 -2.564,3.751 -5.402,3.751c-3.65,0 -5.915,-2.388 -5.915,-6.219c0,-3.843 2.277,-6.336 5.807,-6.336c3.471,0 5.654,2.329 5.654,6.044l0,0.861l-8.862,0l0,0.152zm6.285,-1.909c-0.06,-1.875 -1.288,-3.11 -3.077,-3.11c-1.777,0 -3.064,1.258 -3.195,3.11l6.272,0zm1.393,-20.726c-0.435,0 -0.773,-0.33 -0.773,-0.766c0,-0.437 0.351,-0.755 0.797,-0.755c0.447,0 0.797,0.318 0.797,0.755c0,0.459 -0.338,0.766 -0.821,0.766zm-2.029,0c-0.434,0 -0.772,-0.33 -0.772,-0.766c0,-0.437 0.35,-0.755 0.797,-0.755c0.446,0 0.797,0.318 0.797,0.755c0,0.459 -0.339,0.766 -0.822,0.766zm0.616,4.315l0,-3.136l1.305,0l0,3.313c0,1.403 -0.857,2.087 -2.56,2.087l-0.53,0l-0.219,0l-0.59,0c-0.374,0 -0.977,-0.118 -1.485,-0.401c-0.447,0.318 -1.172,0.401 -2.041,0.401l-0.759,0l-0.219,0l-0.988,0c-0.061,1.002 -0.351,1.733 -0.834,2.181c-0.507,0.448 -1.231,0.696 -2.1,0.696c-0.242,0 -0.52,-0.024 -0.821,-0.059l0.314,-1.049c0.193,0.023 0.397,0.035 0.554,0.035c1.064,0 1.594,-0.602 1.594,-1.816l0,-4.74l1.305,0l0,3.667l0.976,0l0.219,0l0.832,0c0.99,0 1.183,-0.153 1.183,-0.86l0,-3.455l1.293,0l0,4.103c0.228,0.129 0.638,0.212 0.977,0.212l0.59,0l0.219,0l0.482,0c1.026,0 1.303,-0.436 1.303,-1.179zm-4.272,-4.315c-0.435,0 -0.773,-0.33 -0.773,-0.766c0,-0.437 0.35,-0.755 0.797,-0.755c0.447,0 0.797,0.318 0.797,0.755c0,0.459 -0.338,0.766 -0.821,0.766zm-4.515,0.683c-0.434,0 -0.773,-0.329 -0.773,-0.766c0,-0.436 0.351,-0.754 0.797,-0.754c0.447,0 0.797,0.318 0.797,0.754c0,0.46 -0.338,0.766 -0.821,0.766zm-6.264,5.896l-1.784,0l-0.221,0l-0.226,0c-0.241,0 -0.567,-0.036 -0.881,-0.129l0,0.164c0,0.614 -0.483,1.863 -2.765,1.863l-0.905,0c-1.763,0 -3.623,-0.353 -3.623,-2.735c0,-0.826 0.52,-2.5 0.749,-3.137l1.172,0.308l-0.17,0.53c-0.12,0.412 -0.495,1.615 -0.495,2.299c0,1.639 1.607,1.639 2.693,1.639l0.761,0c0.542,0 1.291,-0.213 1.291,-0.885l0,-7.864l1.292,0l0,6.697c0.218,0.106 0.555,0.165 0.881,0.165l0.226,0l0.221,0l1.736,0c1.026,0 1.303,-0.436 1.303,-1.179l0,-3.136l1.305,0l0,3.313c0,1.403 -0.858,2.087 -2.56,2.087zm-2.909,15.277c0,3.865 -2.302,6.277 -5.952,6.277c-3.648,0 -5.95,-2.412 -5.95,-6.277c0,-3.855 2.325,-6.278 5.95,-6.278c3.638,0 5.952,2.423 5.952,6.278zm-9.28,0c0,2.655 1.242,4.203 3.328,4.203c2.087,0 3.328,-1.548 3.328,-4.203c0,-2.644 -1.241,-4.205 -3.328,-4.205c-2.086,0 -3.328,1.572 -3.328,4.205zm-4.322,-14.911c-0.423,0 -0.942,-0.166 -1.618,-0.366l-2.52,0l-0.221,0l-0.226,0c-0.241,0 -0.567,-0.036 -0.881,-0.129l0,0.164c0,0.614 -0.483,1.863 -2.765,1.863l-0.906,0c-1.762,0 -3.622,-0.353 -3.622,-2.735c0,-0.826 0.519,-2.5 0.748,-3.137l1.172,0.308l-0.169,0.53c-0.121,0.412 -0.495,1.615 -0.495,2.299c0,1.639 1.606,1.639 2.692,1.639l0.761,0c0.543,0 1.292,-0.213 1.292,-0.885l0,-4.657l1.292,0l0,3.49c0.217,0.106 0.555,0.165 0.881,0.165l0.226,0l0.221,0l1.458,0c-0.145,-0.483 -0.206,-0.967 -0.206,-1.592c0,-1.461 0.834,-2.782 2.62,-2.782c1.715,0 2.379,1.367 2.379,2.995c0,1.203 -0.435,2.83 -2.113,2.83zm-0.338,-4.787c-0.881,0 -1.268,0.802 -1.268,1.816c0,0.53 0.036,1.002 0.23,1.567c0.35,0.13 0.845,0.295 1.292,0.295c0.748,0 0.954,-0.932 0.954,-1.757c0,-0.789 -0.23,-1.921 -1.208,-1.921zm-8.63,-1.592c-0.434,0 -0.772,-0.33 -0.772,-0.767c0,-0.436 0.349,-0.754 0.797,-0.754c0.446,0 0.796,0.318 0.796,0.754c0,0.46 -0.337,0.767 -0.821,0.767zm1.067,15.222l-2.599,0c-0.156,-1.678 -1.576,-2.69 -3.65,-2.69c-2.075,0 -3.494,1.024 -3.494,2.515c0,1.188 0.906,1.887 3.124,2.422l1.897,0.455c3.53,0.815 4.996,2.2 4.996,4.658c0,3.144 -2.563,5.113 -6.642,5.113c-3.816,0 -6.393,-1.923 -6.56,-4.962l2.637,0c0.19,1.666 1.848,2.76 4.114,2.76c2.17,0 3.732,-1.094 3.732,-2.596c0,-1.305 -0.942,-2.086 -3.172,-2.621l-2.23,-0.525c-3.16,-0.745 -4.627,-2.188 -4.627,-4.529c0,-2.9 2.587,-4.892 6.26,-4.892c3.638,0 6.13,1.992 6.214,4.892zm-24.653,12.321c-1.788,0 -3.208,-0.781 -3.948,-2.144l-0.059,0l0,6.069l-2.576,0l0,-16.305l2.493,0l0,2.038l0.047,0c0.716,-1.315 2.243,-2.166 3.995,-2.166c3.184,0 5.284,2.458 5.284,6.255c0,3.807 -2.087,6.253 -5.236,6.253zm-0.727,-10.365c-1.968,0 -3.291,1.665 -3.291,4.112c0,2.468 1.323,4.122 3.291,4.122c2.003,0 3.315,-1.619 3.315,-4.122c0,-2.481 -1.312,-4.112 -3.315,-4.112zm-13.083,10.365c-1.787,0 -3.207,-0.781 -3.947,-2.144l-0.06,0l0,6.069l-2.575,0l0,-16.305l2.493,0l0,2.038l0.047,0c0.716,-1.315 2.243,-2.166 3.995,-2.166c3.184,0 5.283,2.458 5.283,6.255c0,3.807 -2.086,6.253 -5.236,6.253zm-0.726,-10.365c-1.968,0 -3.292,1.665 -3.292,4.112c0,2.468 1.324,4.122 3.292,4.122c2.003,0 3.315,-1.619 3.315,-4.122c0,-2.481 -1.312,-4.112 -3.315,-4.112zm-11.855,5.695l-6.56,0l-1.575,4.542l-2.778,0l6.213,-16.804l2.886,0l6.213,16.804l-2.825,0l-1.574,-4.542zm-3.244,-9.467l-0.072,0l-2.564,7.371l5.199,0l-2.563,-7.371zm57.535,-1.142l2.588,0l0,2.899l2.385,0l0,1.991l-2.385,0l0,6.755c0,1.049 0.477,1.538 1.526,1.538c0.263,0 0.681,-0.035 0.847,-0.058l0,1.98c-0.285,0.07 -0.858,0.116 -1.43,0.116c-2.54,0 -3.531,-0.932 -3.531,-3.308l0,-7.023l-1.824,0l0,-1.991l1.824,0l0,-2.899zm20.514,-5.131c0.446,0 0.797,0.318 0.797,0.755c0,0.459 -0.339,0.766 -0.822,0.766c-0.434,0 -0.772,-0.33 -0.772,-0.766c0,-0.437 0.35,-0.755 0.797,-0.755zm2.004,1.521c-0.435,0 -0.773,-0.33 -0.773,-0.766c0,-0.437 0.349,-0.755 0.797,-0.755c0.447,0 0.796,0.318 0.796,0.755c0,0.459 -0.337,0.766 -0.82,0.766zm0.318,8.595l0.059,0c0.394,-1.387 1.539,-2.214 3.018,-2.214c0.37,0 0.679,0.048 0.882,0.094l0,2.352c-0.203,-0.082 -0.656,-0.151 -1.157,-0.151c-1.657,0 -2.683,1.094 -2.683,2.818l0,7.267l-2.575,0l0,-12.252l2.456,0l0,2.086z" fill="#ffffff" opacity="0.82" fill-rule="evenodd"/>
 </g>
</svg>