<svg width="166" height="55.00000000000001" xmlns="http://www.w3.org/2000/svg">

 <g>
  <title>background</title>
  <rect fill="none" id="canvas_background" height="402" width="582" y="-1" x="-1"/>
 </g>
 <g>
  <title>Layer 1</title>
  <path id="svg_1" d="m159.668,54.849l-153.535,0c-3.378,0 -6.142,-2.699 -6.142,-5.997l0,-42.609c0,-3.298 2.764,-5.997 6.142,-5.997l153.535,0c3.378,0 6.141,2.699 6.141,5.997l0,42.609c0,3.298 -2.763,5.997 -6.141,5.997zm5.159,-48.606c0,-2.778 -2.314,-5.038 -5.159,-5.038l-153.535,0c-2.845,0 -5.159,2.26 -5.159,5.038l0,42.609c0,2.778 2.314,5.037 5.159,5.037l153.535,0c2.845,0 5.159,-2.259 5.159,-5.037l0,-42.609zm-18.988,37.478l2.331,-5.054l-4.089,-9.086l2.47,0l2.726,6.501l0.079,0l2.627,-6.501l2.549,0l-6.302,14.14l-2.391,0zm7.926,-33.505c0.049,0.946 0.073,1.787 0.073,2.526l0,0.825c0,0.85 -0.031,2.003 -0.092,3.459l-0.62,0.11c-0.057,-3.084 -0.18,-5.644 -0.37,-7.68l-0.005,-0.167c0,-0.28 0.07,-0.501 0.213,-0.667c0.143,-0.166 0.368,-0.277 0.677,-0.338c0.013,0.056 0.026,0.107 0.039,0.155c0.013,0.047 0.161,0.518 0.443,1.41l-0.364,0.303l0.006,0.064zm-2.912,5.348l-0.046,-0.007l-0.277,0.007c-0.312,0 -0.61,0.045 -0.893,0.135c-0.285,0.09 -0.725,0.286 -1.323,0.587c-0.673,0.339 -1.281,0.565 -1.825,0.679c-0.543,0.114 -1.373,0.171 -2.49,0.171c-0.022,0 -0.018,-0.026 -0.033,-0.033c-0.017,0.007 -0.012,0.033 -0.035,0.033c-0.383,0 -0.763,-0.076 -1.141,-0.226c-0.379,-0.15 -0.689,-0.348 -0.931,-0.592c-0.401,0.253 -0.89,0.453 -1.468,0.598c-0.578,0.147 -1.155,0.22 -1.732,0.22c-0.65,0 -1.32,-0.069 -2.006,-0.206c-0.686,-0.138 -1.23,-0.316 -1.636,-0.536l-0.23,0.259c-0.299,0.322 -0.792,0.483 -1.478,0.483c-0.021,0 -0.017,-0.026 -0.033,-0.032c-0.015,0.006 -0.01,0.032 -0.032,0.032c-0.326,0 -0.633,-0.071 -0.923,-0.213l0.012,0.432c0,0.545 -0.173,1.065 -0.521,1.559c-0.348,0.493 -0.825,0.896 -1.432,1.207c-0.607,0.312 -1.233,0.468 -1.88,0.468c-0.77,0 -1.369,-0.216 -1.8,-0.648c-0.432,-0.431 -0.648,-1.042 -0.648,-1.833c0,-0.253 0.017,-0.492 0.051,-0.718c0.032,-0.225 0.104,-0.555 0.213,-0.989l0.495,0.116c-0.1,0.387 -0.152,0.7 -0.152,0.941c0,0.644 0.166,1.145 0.495,1.503c0.33,0.359 0.79,0.539 1.379,0.539c0.427,0 0.871,-0.073 1.334,-0.219c0.46,-0.146 0.868,-0.346 1.22,-0.599c0.351,-0.253 0.6,-0.531 0.744,-0.831l-0.343,-2.133c-0.381,-2.233 -0.633,-3.789 -0.754,-4.667c-0.121,-0.878 -0.181,-1.457 -0.181,-1.737c0,-0.296 0.069,-0.525 0.211,-0.689c0.14,-0.163 0.364,-0.277 0.671,-0.341c0.015,0.056 0.027,0.107 0.041,0.155c0.012,0.047 0.16,0.518 0.442,1.41l-0.317,0.271l0.026,0.206l0.442,3.911c0.079,0.571 0.139,1.118 0.179,1.643l0.006,0.025c0.29,0.151 0.621,0.226 0.99,0.226c0.022,0 0.017,0.025 0.032,0.031c0.016,-0.006 0.012,-0.031 0.033,-0.031c0.404,0 0.726,-0.072 0.963,-0.216c0.238,-0.143 0.478,-0.422 0.719,-0.834l0.211,-0.367c0.093,-0.156 0.236,-0.232 0.429,-0.232c0.127,0 0.233,0.04 0.317,0.121c-0.19,0.448 -0.324,0.752 -0.403,0.916c0.221,0.103 0.445,0.189 0.674,0.257c1.724,-2.233 3.193,-3.35 4.407,-3.35c0.254,0 0.569,0.102 0.943,0.303c0.374,0.203 0.707,0.462 1.003,0.78c0.295,0.318 0.441,0.597 0.441,0.837c0,0.533 -0.173,1.008 -0.521,1.424c0.409,0.24 0.889,0.361 1.439,0.361c0.023,0 0.018,0.026 0.035,0.032c0.015,-0.006 0.011,-0.032 0.033,-0.032c1.324,0 2.364,-0.112 3.121,-0.335l0.751,-0.251c0.511,-0.19 0.964,-0.318 1.36,-0.387c-0.352,-0.172 -0.7,-0.39 -1.043,-0.657c-0.365,-0.279 -0.66,-0.473 -0.887,-0.583c-0.226,-0.11 -0.459,-0.165 -0.697,-0.165c-0.43,0 -0.818,0.108 -1.161,0.323l-0.317,0.193c-0.131,-0.129 -0.196,-0.3 -0.196,-0.516c0,-0.33 0.149,-0.596 0.448,-0.798c0.299,-0.202 0.693,-0.303 1.181,-0.303c0.285,0 0.574,0.061 0.867,0.18c0.293,0.12 0.632,0.318 1.02,0.593c0.47,0.339 0.87,0.594 1.2,0.764c0.33,0.169 0.665,0.29 1.003,0.364c0.338,0.072 0.831,0.109 1.478,0.109l-0.515,0.973c-0.282,-0.035 -0.534,-0.059 -0.759,-0.071zm-9.429,-1.646c-0.383,-0.26 -0.761,-0.39 -1.135,-0.39c-0.427,0 -0.934,0.202 -1.525,0.609c-0.588,0.405 -1.228,1.006 -1.919,1.801c0.704,0.128 1.354,0.193 1.953,0.193c1.174,0 2.377,-0.376 3.608,-1.128c-0.272,-0.464 -0.6,-0.826 -0.982,-1.085zm-11.349,14.919c0,2.86 -2.497,4.656 -5.037,4.656l-3.201,0l0,5.681l-2.291,0l0,-14.995l5.492,0c2.54,0 5.037,1.796 5.037,4.658zm-4.978,-2.571l-3.26,0l0,5.14l3.26,0c1.714,0 2.687,-1.408 2.687,-2.569c0,-1.185 -0.973,-2.571 -2.687,-2.571zm-3.861,-9.968c-1.072,0.262 -1.884,0.441 -2.434,0.538c-0.549,0.097 -1.114,0.171 -1.692,0.222c-0.578,0.052 -1.171,0.078 -1.778,0.078c-0.022,0 -0.018,-0.027 -0.034,-0.033c-0.016,0.006 -0.011,0.033 -0.035,0.033c-0.66,0 -1.177,-0.157 -1.551,-0.471c-0.329,0.181 -0.626,0.304 -0.89,0.371c-0.264,0.066 -0.589,0.1 -0.977,0.1c-0.068,0 -0.099,-0.039 -0.104,-0.102c-0.005,0.063 -0.035,0.102 -0.104,0.102c-0.832,0 -1.544,-0.255 -2.138,-0.767l-0.218,0.284c-0.091,0.098 -0.419,0.204 -0.979,0.315c-0.561,0.112 -1.112,0.168 -1.653,0.168c-0.022,0 -0.018,-0.027 -0.033,-0.033c-0.016,0.006 -0.011,0.033 -0.034,0.033c-0.545,0 -0.987,-0.1 -1.325,-0.3c-0.339,-0.199 -0.534,-0.482 -0.587,-0.847l-0.047,-0.277l-0.495,0.909c-0.492,-0.043 -0.83,-0.086 -1.015,-0.126c-0.185,-0.041 -0.378,-0.099 -0.578,-0.175c-0.2,-0.075 -0.405,-0.17 -0.617,-0.286c-0.211,-0.116 -0.37,-0.228 -0.478,-0.335c-0.108,-0.107 -0.162,-0.206 -0.162,-0.296c0,-0.116 0.061,-0.316 0.182,-0.6c0.121,-0.283 0.221,-0.491 0.3,-0.625c0.137,-0.244 0.434,-0.526 0.894,-0.847c0.459,-0.319 0.946,-0.581 1.462,-0.782l-0.047,-0.361c0.312,-0.275 0.639,-0.505 0.982,-0.69l0.126,4.284c0.409,0.233 0.877,0.349 1.405,0.349c0.023,0 0.018,0.026 0.034,0.032c0.015,-0.006 0.011,-0.032 0.033,-0.032c0.559,0 1.033,-0.023 1.422,-0.071c0.389,-0.048 0.664,-0.127 0.825,-0.238c0.161,-0.113 0.397,-0.462 0.709,-1.051l0.237,-0.425c0.079,-0.142 0.219,-0.213 0.415,-0.213c0.124,0 0.234,0.035 0.331,0.104c-0.163,0.382 -0.306,0.702 -0.429,0.959c-0.124,0.258 -0.198,0.402 -0.224,0.432c0.303,0.189 0.586,0.32 0.848,0.393c0.261,0.073 0.545,0.11 0.854,0.11c0.069,0 0.099,0.038 0.104,0.101c0.005,-0.063 0.036,-0.101 0.104,-0.101c0.51,0 1.003,-0.114 1.478,-0.342c-0.119,-0.927 -0.261,-2.598 -0.429,-5.012l-0.132,-1.759c0.268,-0.27 0.572,-0.515 0.911,-0.734c0.057,1.207 0.104,3.103 0.138,5.688l0.047,1.81c0.408,0.233 0.877,0.349 1.405,0.349c0.024,0 0.019,0.026 0.035,0.033c0.016,-0.007 0.012,-0.033 0.034,-0.033c0.581,0 1.142,-0.013 1.682,-0.039c-0.215,-0.138 -0.403,-0.326 -0.564,-0.567c-0.161,-0.241 -0.24,-0.497 -0.24,-0.766c0,-0.374 0.105,-0.767 0.313,-1.18c0.209,-0.412 0.479,-0.744 0.808,-0.998c0.331,-0.253 0.675,-0.38 1.036,-0.38c0.312,0 0.612,0.076 0.897,0.228c0.286,0.153 0.618,0.39 0.996,0.712l-0.238,0.419c-0.355,-0.133 -0.615,-0.217 -0.777,-0.251c-0.163,-0.034 -0.342,-0.051 -0.535,-0.051c-0.554,0 -1.132,0.16 -1.734,0.483c0,0.377 0.092,0.722 0.279,1.033c0.187,0.312 0.46,0.562 0.815,0.751c0.357,0.189 0.777,0.297 1.26,0.323c0.343,-0.069 0.671,-0.152 0.983,-0.249c0.313,-0.096 0.75,-0.252 1.313,-0.467c0.124,0.112 0.185,0.269 0.185,0.47l-0.013,0.136c-0.053,0.296 -0.24,0.483 -0.562,0.56zm-16.988,-2.873l-0.007,-0.025c-1.078,0.36 -1.845,0.824 -2.303,1.391c0.361,0.3 0.761,0.5 1.201,0.599c0.44,0.099 0.925,0.152 1.458,0.161l-0.349,-2.126zm-9.315,30.638c-2.533,0 -4.057,-1.662 -4.631,-3.014l1.999,-0.812c0.356,0.831 1.227,1.816 2.632,1.816c1.721,0 2.79,-1.043 2.79,-2.995l0,-0.734l-0.079,0c-0.515,0.618 -1.504,1.159 -2.751,1.159c-2.612,0 -5.006,-2.222 -5.006,-5.082c0,-2.879 2.394,-5.121 5.006,-5.121c1.247,0 2.236,0.541 2.751,1.141l0.079,0l0,-0.831l2.176,0l0,9.159c0,3.768 -2.275,5.314 -4.966,5.314zm0.158,-12.773c-1.583,0 -2.909,1.314 -2.909,3.111c0,1.778 1.326,3.073 2.909,3.073c1.563,0 2.79,-1.295 2.79,-3.073c0,-1.797 -1.227,-3.111 -2.79,-3.111zm0.969,-14.154c-0.542,0 -1.117,-0.073 -1.726,-0.22c-0.61,-0.145 -1.118,-0.334 -1.527,-0.566c-0.211,0.279 -0.441,0.481 -0.693,0.602c-0.25,0.123 -0.547,0.184 -0.89,0.184c-0.021,0 -0.017,-0.026 -0.032,-0.031c-0.016,0.005 -0.011,0.031 -0.032,0.031c-0.305,0 -0.577,-0.054 -0.818,-0.161l0.019,0.38c0,0.541 -0.176,1.059 -0.528,1.552c-0.351,0.494 -0.833,0.899 -1.444,1.212c-0.611,0.313 -1.242,0.47 -1.894,0.47c-0.77,0 -1.37,-0.216 -1.801,-0.648c-0.431,-0.431 -0.647,-1.042 -0.647,-1.833c0,-0.253 0.017,-0.492 0.051,-0.718c0.032,-0.225 0.104,-0.555 0.213,-0.989l0.495,0.116c-0.102,0.387 -0.152,0.7 -0.152,0.941c0,0.644 0.166,1.145 0.495,1.503c0.33,0.359 0.79,0.539 1.379,0.539c0.669,0 1.335,-0.159 1.999,-0.476c0.665,-0.319 1.109,-0.709 1.333,-1.173c-0.589,-1.259 -0.884,-2.098 -0.884,-2.519c0,-0.228 0.066,-0.434 0.198,-0.618c0.132,-0.185 0.361,-0.372 0.686,-0.561c0.039,0.31 0.143,0.878 0.309,1.707l0.007,0.052c0.299,0.146 0.627,0.219 0.984,0.219c0.021,0 0.016,0.025 0.032,0.031c0.015,-0.006 0.011,-0.031 0.032,-0.031c0.343,0 0.632,-0.081 0.867,-0.242c0.235,-0.161 0.439,-0.407 0.61,-0.738l0.272,-0.528c0.346,-0.722 0.686,-1.23 1.018,-1.526c0.332,-0.297 0.697,-0.445 1.093,-0.445c0.264,0 0.526,0.157 0.788,0.47c0.261,0.313 0.472,0.718 0.633,1.211c0.161,0.494 0.241,0.971 0.241,1.43c0,0.271 -0.051,0.517 -0.152,0.738c-0.101,0.221 -0.28,0.432 -0.534,0.635zm-0.614,-2.571c-0.193,-0.498 -0.385,-0.747 -0.573,-0.747c-0.173,0 -0.333,0.049 -0.483,0.148c-0.15,0.099 -0.298,0.251 -0.448,0.458c-0.15,0.206 -0.352,0.553 -0.607,1.043c0.633,0.339 1.443,0.561 2.428,0.664c-0.019,-0.546 -0.124,-1.068 -0.317,-1.566zm-9.716,-1.076c0.462,-0.451 0.776,-0.773 0.944,-0.966c0.286,0.305 0.584,0.59 0.897,0.856c-0.211,0.297 -0.501,0.619 -0.871,0.967c-0.4,-0.309 -0.724,-0.595 -0.97,-0.857zm3.195,20.893c0,2.937 -2.354,5.101 -5.244,5.101c-2.889,0 -5.243,-2.164 -5.243,-5.101c0,-2.956 2.354,-5.102 5.243,-5.102c2.89,0 5.244,2.146 5.244,5.102zm-5.244,-3.092c-1.583,0 -2.948,1.256 -2.948,3.092c0,1.816 1.365,3.092 2.948,3.092c1.583,0 2.949,-1.276 2.949,-3.092c0,-1.836 -1.366,-3.092 -2.949,-3.092zm-11.439,8.193c-2.889,0 -5.244,-2.164 -5.244,-5.101c0,-2.956 2.355,-5.102 5.244,-5.102c2.889,0 5.244,2.146 5.244,5.102c0,2.937 -2.355,5.101 -5.244,5.101zm0,-8.193c-1.583,0 -2.949,1.256 -2.949,3.092c0,1.816 1.366,3.092 2.949,3.092c1.583,0 2.948,-1.276 2.948,-3.092c0,-1.836 -1.365,-3.092 -2.948,-3.092zm-13.608,8.193c-4.472,0 -8.232,-3.555 -8.232,-7.922c0,-4.368 3.76,-7.923 8.232,-7.923c2.474,0 4.235,0.947 5.561,2.183l-1.564,1.527c-0.949,-0.87 -2.236,-1.547 -3.997,-1.547c-3.265,0 -5.818,2.571 -5.818,5.76c0,3.188 2.553,5.758 5.818,5.758c2.117,0 3.325,-0.831 4.096,-1.584c0.634,-0.619 1.049,-1.508 1.207,-2.725l-5.303,0l0,-2.164l7.46,0c0.079,0.386 0.119,0.849 0.119,1.352c0,1.623 -0.455,3.633 -1.92,5.063c-1.424,1.45 -3.245,2.222 -5.659,2.222zm-25,-7.594l-4.822,-4.709l4.821,-4.708l5.681,3.152c0.778,0.431 1.215,0.987 1.288,1.555c0,0.001 0,0.003 0,0.003c-0.073,0.567 -0.51,1.123 -1.288,1.555l-5.68,3.152zm-20.297,-19.82c0.548,-0.223 1.25,-0.165 2.024,0.265l17.387,9.646l-4.631,4.522l-14.78,-14.433zm-0.748,29.596c-0.221,-0.354 -0.349,-0.823 -0.349,-1.395l0,-26.177c0,-0.574 0.138,-1.032 0.359,-1.387l14.824,14.474l-14.834,14.485zm20.159,-9.284l-17.387,9.646c-0.775,0.431 -1.482,0.495 -2.029,0.27l14.785,-14.439l4.631,4.523zm71.03,6.793l-2.296,0l0,-14.995l2.296,0l0,14.995zm3.577,-20.273c0.237,-0.215 0.527,-0.511 0.87,-0.889c0.079,0.081 0.355,0.345 0.826,0.792c-0.164,0.254 -0.43,0.554 -0.799,0.902c-0.405,-0.318 -0.703,-0.586 -0.897,-0.805zm2.902,-1.082c0.079,0.085 0.358,0.352 0.833,0.798c-0.163,0.25 -0.434,0.548 -0.812,0.896c-0.391,-0.305 -0.689,-0.573 -0.892,-0.805c0.203,-0.181 0.493,-0.478 0.871,-0.889zm-0.444,11.461c2.711,0 4.037,2.107 4.472,3.247l0.238,0.579l-6.985,2.822c0.534,1.024 1.365,1.546 2.533,1.546c1.167,0 1.978,-0.561 2.572,-1.411l1.781,1.159c-0.574,0.831 -1.959,2.261 -4.353,2.261c-2.969,0 -5.185,-2.241 -5.185,-5.101c0,-3.034 2.236,-5.102 4.927,-5.102zm2.019,3.053c-0.257,-0.638 -1.029,-1.082 -1.94,-1.082c-1.167,0 -2.79,1.005 -2.73,2.976l4.67,-1.894zm21.799,6.841l-2.292,0l0,-14.995l2.292,0l0,14.995zm5.689,-6.391c1.087,0 1.976,0.347 2.391,0.579l0,-0.155c-0.02,-1.234 -1.225,-1.929 -2.411,-1.929c-0.849,0 -1.659,0.27 -2.093,1.1l-2.035,-0.83c0.711,-1.582 2.43,-2.296 4.089,-2.296c2.627,0 4.662,1.486 4.662,4.148l0,5.748l-2.212,0l0,-1.156l-0.079,0c-0.534,0.79 -1.383,1.466 -2.924,1.466c-2.015,0 -3.813,-1.293 -3.813,-3.299c0,-2.2 2.233,-3.376 4.425,-3.376zm-0.336,4.688c1.324,0 2.549,-0.984 2.727,-2.373c-0.613,-0.289 -1.087,-0.502 -2.094,-0.502c-1.126,0 -2.43,0.445 -2.43,1.602c0,0.906 1.047,1.273 1.797,1.273z" fill="#ffffff" opacity="0.82" fill-rule="evenodd"/>
 </g>
</svg>