<svg width="41.883" height="41.883" xmlns="http://www.w3.org/2000/svg">

 <g>
  <title>background</title>
  <rect fill="none" id="canvas_background" height="402" width="582" y="-1" x="-1"/>
 </g>
 <g>
  <title>Layer 1</title>
  <path fill="#daa520" id="svg_2" d="m14.257,14.479l-0.516,0l0.775,-2.219l0.636,0c0.468,0 0.58,0.264 0.37,0.864l-0.164,0.468c-0.233,0.669 -0.608,0.887 -1.101,0.887zm7.169,7.569c-0.42,0 -0.764,0.229 -0.974,0.828l-1.585,4.532c-0.21,0.601 -0.025,0.828 0.395,0.828c0.42,0 0.763,-0.229 0.973,-0.828l1.585,-4.532c0.209,-0.599 0.026,-0.828 -0.394,-0.828zm-7.276,-4.619l0.255,-0.731c0.273,-0.78 0.104,-1.02 -0.495,-1.02l-0.588,0l-0.901,2.579l0.756,0c0.443,-0.002 0.754,-0.206 0.973,-0.828zm26.371,7.423c0.493,0.758 0.616,1.698 0.337,2.561c-0.278,0.861 -0.932,1.549 -1.776,1.873l-4.353,1.673l-0.245,4.655c-0.048,0.904 -0.501,1.738 -1.232,2.271c-0.732,0.533 -1.666,0.705 -2.539,0.472l-4.504,-1.207l-2.936,3.623c-0.569,0.703 -1.426,1.111 -2.331,1.111s-1.761,-0.408 -2.331,-1.111l-2.935,-3.623l-4.503,1.207c-0.875,0.233 -1.807,0.062 -2.54,-0.472c-0.732,-0.532 -1.185,-1.366 -1.233,-2.271l-0.245,-4.655l-4.352,-1.673c-0.845,-0.323 -1.498,-1.012 -1.777,-1.873c-0.28,-0.86 -0.156,-1.801 0.337,-2.561l2.539,-3.911l-2.539,-3.91c-0.493,-0.759 -0.617,-1.7 -0.337,-2.561c0.279,-0.861 0.932,-1.549 1.777,-1.874l4.352,-1.672l0.246,-4.654c0.047,-0.904 0.5,-1.737 1.232,-2.27c0.732,-0.531 1.667,-0.703 2.539,-0.471l4.503,1.205l2.936,-3.623c0.57,-0.703 1.426,-1.111 2.331,-1.111s1.762,0.408 2.331,1.111l2.936,3.623l4.504,-1.206c0.875,-0.233 1.808,-0.061 2.539,0.471c0.73,0.532 1.185,1.366 1.231,2.27l0.245,4.655l4.354,1.672c0.844,0.324 1.498,1.013 1.775,1.874c0.28,0.86 0.156,1.801 -0.337,2.561l-2.539,3.91l2.54,3.911zm-12.552,-12.594l-2.518,7.196l1.319,0l2.517,-7.196l1.381,0l0.418,-1.199l-4.076,0l-0.42,1.199l1.379,0zm-5.936,0.816c-0.838,2.398 1.626,2.722 1.022,4.449c-0.21,0.6 -0.55,0.816 -0.97,0.816s-0.607,-0.216 -0.397,-0.816l0.208,-0.6l-1.247,0l-0.18,0.516c-0.469,1.343 -0.066,2.11 1.229,2.11c1.295,0 2.235,-0.768 2.705,-2.11c0.841,-2.399 -1.626,-2.723 -1.022,-4.45c0.211,-0.6 0.531,-0.828 0.949,-0.828c0.42,0 0.58,0.229 0.369,0.828l-0.119,0.348l1.245,0l0.095,-0.264c0.47,-1.343 0.078,-2.111 -1.205,-2.111s-2.211,0.77 -2.682,2.112zm-3.543,-2.014l-2.936,8.396l3.598,0l0.419,-1.199l-2.279,0l0.86,-2.459l1.811,0l0.419,-1.199l-1.811,0l0.817,-2.339l2.279,0l0.42,-1.199l-3.597,-0.001l0,0zm-7.808,8.396l2.075,0c1.319,0 2.246,-0.696 2.699,-1.991l0.239,-0.684c0.311,-0.888 0.257,-1.523 -0.354,-1.799c0.684,-0.276 1.141,-0.828 1.443,-1.691l0.104,-0.3c0.453,-1.295 0.088,-1.931 -1.279,-1.931l-1.991,0l-2.936,8.396zm1.074,7.87l0.39,-1.115l-1.248,0l-0.419,1.199c-0.21,0.6 -0.549,0.816 -0.969,0.816c-0.419,0 -0.608,-0.218 -0.398,-0.816l1.585,-4.533c0.21,-0.6 0.554,-0.828 0.974,-0.828s0.604,0.229 0.394,0.828l-0.314,0.898l1.248,0l0.285,-0.814c0.47,-1.344 0.066,-2.111 -1.229,-2.111c-1.295,0 -2.236,0.767 -2.706,2.111l-1.526,4.365c-0.47,1.344 -0.066,2.111 1.229,2.111c1.294,0.001 2.235,-0.767 2.704,-2.111zm4.263,2.014l2.936,-8.396l-1.343,0l-1.258,3.598l-1.5,0l1.258,-3.598l-1.319,0l-2.936,8.396l1.319,0l1.258,-3.6l1.5,0l-1.258,3.6l1.343,0zm5.566,-2.014l1.524,-4.365c0.472,-1.344 0.031,-2.111 -1.266,-2.111c-1.294,0 -2.271,0.767 -2.74,2.111l-1.526,4.365c-0.47,1.344 -0.03,2.111 1.265,2.111s2.272,-0.767 2.743,-2.111zm4.402,-6.382l-1.318,0l-2.936,8.396l1.318,0l2.936,-8.396zm2.46,6.382c0.839,-2.398 -1.626,-2.723 -1.021,-4.449c0.209,-0.6 0.529,-0.828 0.947,-0.828c0.42,0 0.58,0.229 0.369,0.828l-0.119,0.348l1.246,0l0.094,-0.264c0.47,-1.344 0.078,-2.111 -1.205,-2.111s-2.211,0.767 -2.683,2.111c-0.839,2.398 1.627,2.723 1.022,4.449c-0.21,0.6 -0.55,0.816 -0.97,0.816c-0.418,0 -0.607,-0.218 -0.397,-0.816l0.209,-0.6l-1.247,0l-0.18,0.516c-0.471,1.344 -0.067,2.111 1.229,2.111s2.237,-0.767 2.706,-2.111zm6.587,-6.382l-3.599,0l-2.935,8.396l3.599,0l0.419,-1.197l-2.278,0l0.859,-2.459l1.811,0l0.42,-1.199l-1.812,0l0.818,-2.338l2.276,0l0.422,-1.203z"/>
 </g>
</svg>