<svg width="612.008" height="612.008" xmlns="http://www.w3.org/2000/svg">

 <g>
  <title>background</title>
  <rect fill="none" id="canvas_background" height="402" width="582" y="-1" x="-1"/>
 </g>
 <g>
  <title>Layer 1</title>
  <path fill="#daa520" id="svg_2" d="m609.383,170.157c-11.479,-66.076 -59.969,-117.694 -125.18,-130.505c-67.537,-13.263 -134.697,16.207 -169.347,74.289c-2.642,4.412 -8.735,14.841 -8.851,14.683c-0.117,0.158 -6.21,-10.272 -8.851,-14.683c-34.65,-58.082 -101.81,-87.552 -169.347,-74.289c-65.206,12.811 -113.702,64.43 -125.182,130.505c-9.009,51.831 5.846,100.829 34.177,143.981c22.506,34.294 47.612,67.558 75.764,97.309c57.794,61.101 125.613,110.929 193.431,164.05c67.825,-53.121 135.644,-102.949 193.431,-164.05c28.152,-29.751 53.259,-63.022 75.764,-97.309c28.338,-43.152 43.2,-92.142 34.191,-143.981zm-474.085,-53.203c-14.931,0.192 -29.641,7.074 -40.38,18.876c-11.253,12.378 -16.714,28.228 -15.363,44.634c0.714,8.714 -5.77,16.351 -14.471,17.064c-0.446,0.034 -0.878,0.055 -1.311,0.055c-8.151,0 -15.075,-6.264 -15.754,-14.533c-2.038,-24.88 6.525,-49.848 23.494,-68.512c16.605,-18.265 39.707,-28.921 63.372,-29.23c8.659,-0.199 15.905,6.875 16.028,15.61c0.105,8.742 -6.873,15.919 -15.615,16.036z"/>
 </g>
</svg>