<svg width="331.554" height="331.554" xmlns="http://www.w3.org/2000/svg">

 <g>
  <title>background</title>
  <rect fill="none" id="canvas_background" height="402" width="582" y="-1" x="-1"/>
 </g>
 <g>
  <title>Layer 1</title>
  <path fill="#daa520" id="svg_4" d="m310.769,102.978c-1.836,-14.688 -1.224,-32.436 -13.464,-42.84c-17.748,-14.688 -63.647,-14.076 -77.111,5.508c-12.24,17.136 -5.509,49.572 -4.896,69.156c1.224,27.54 4.284,55.692 8.567,83.232c-9.792,0 -20.195,0 -30.601,0c11.628,-31.824 -17.136,-67.32 -49.573,-69.768c16.524,-18.972 29.989,-41.616 39.168,-64.872c1.225,-3.672 -2.448,-6.732 -6.12,-6.12c-0.611,-1.224 -1.225,-1.836 -1.225,-3.06l-4.283,-9.18c1.836,-0.612 1.836,-3.672 -0.611,-3.672c-9.181,-0.612 -18.361,-1.224 -27.541,-0.612c-1.224,-0.612 -2.448,-0.612 -3.672,0c-12.24,0.612 -24.48,2.448 -36.72,4.284c-1.224,-0.612 -2.448,-0.612 -3.06,-0.612c-4.284,0 -6.732,3.672 -7.956,7.344c-3.06,6.12 -4.896,12.852 -6.12,19.584c-1.224,0.612 -1.836,2.448 -1.224,3.672l0,0c0,0.612 0.612,1.224 1.224,1.836c5.508,10.404 15.3,18.972 23.256,26.928s15.912,16.524 24.48,23.868c-33.66,4.284 -46.512,37.333 -38.556,69.768c-9.792,0 -20.196,0.612 -29.988,1.226c-3.06,0 -4.284,4.896 -0.612,5.508c52.02,9.18 110.161,7.956 162.792,3.06l0,0c-1.836,0.612 -3.672,1.836 -3.672,4.284c1.224,18.972 3.06,39.168 -1.836,57.528c-7.345,29.986 -39.78,33.659 -66.709,32.436c-18.972,-0.611 -43.452,-1.224 -60.588,-9.18c-36.72,-17.137 -27.54,-52.632 -29.988,-84.456c0,-3.672 -5.508,-4.896 -6.732,-0.612c-4.284,23.256 -7.956,59.978 7.956,80.172c18.36,22.646 62.424,23.257 89.352,23.868c25.093,0.612 54.469,2.448 69.156,-21.42c14.076,-22.032 11.628,-53.244 8.567,-77.724c37.944,6.73 74.664,-18.974 83.232,-56.916c4.287,-22.034 -1.833,-48.35 -4.892,-72.218zm-168.913,34.884c3.06,-7.344 4.896,-14.688 6.732,-22.032c2.448,-7.344 4.284,-14.688 6.12,-22.032c4.284,-0.612 8.568,-1.224 12.853,-1.836c-7.345,15.3 -15.913,30.6 -25.705,45.9zm27.54,-60.588c0.612,1.836 1.226,3.672 2.448,5.508c0,0 0,0.612 -0.611,0.612c-4.286,-0.612 -8.568,-0.612 -12.853,-0.612c2.448,-4.284 4.896,-7.956 7.956,-12.24c1.225,2.448 2.448,4.896 3.06,6.732zm-6.732,-11.016c-2.448,3.672 -4.896,7.956 -6.732,11.628c-1.836,-3.672 -4.896,-7.344 -7.344,-10.404c4.284,0 9.18,-0.612 14.076,-1.224zm-22.032,2.448c2.448,3.06 4.896,6.732 7.344,10.404c0.612,1.224 1.836,3.06 2.448,4.284c-6.732,0.612 -12.852,1.224 -18.972,1.836c-1.224,0 -2.448,0 -3.06,0c2.448,-6.12 6.732,-11.628 12.24,-16.524zm-9.18,0c-4.284,4.896 -7.344,10.404 -9.792,16.524c-3.06,-3.672 -7.344,-7.344 -10.404,-11.016c-1.224,-1.224 -2.448,-3.06 -4.284,-4.284c8.568,-0.612 16.524,-1.224 24.48,-1.224zm-39.78,17.136c2.448,-5.508 3.672,-15.912 11.016,-11.016c4.896,3.06 7.956,7.956 12.24,12.24c-8.568,0.612 -17.136,1.836 -25.704,4.284c1.224,-1.836 1.836,-3.672 2.448,-5.508zm22.644,32.436c-6.732,-7.344 -13.464,-16.524 -21.42,-22.644c9.792,1.224 20.196,0.612 29.988,-0.612c2.448,14.076 4.896,28.152 8.568,41.616c-6.12,-6.12 -11.628,-12.24 -17.136,-18.36zm12.24,-23.256c1.224,0 3.06,0 4.284,-0.612c5.508,-0.612 11.016,-0.612 17.136,-0.612c-2.448,6.732 -4.284,12.852 -5.508,19.584c-1.836,6.732 -4.284,14.076 -5.508,20.808c-3.06,-12.852 -6.732,-26.316 -10.404,-39.168zm-10.404,122.4l0,-0.612c-3.06,-10.402 -5.508,-22.03 -0.612,-31.822c5.508,-11.018 17.136,-14.688 28.764,-9.792c7.344,3.06 14.076,7.956 19.584,14.076c7.344,8.566 6.733,16.522 6.121,26.314c0,0.612 0,1.224 0.612,1.836c-18.361,0 -36.109,0 -54.469,0zm69.769,0c-3.061,0 -6.12,0 -9.792,0c0,0 0,0 0.611,0c15.912,-21.42 -18.972,-50.184 -37.944,-52.632c-30.6,-4.284 -38.556,32.436 -25.704,53.244c-4.896,0 -10.404,0 -15.3,0c-1.836,-29.376 6.732,-61.812 42.84,-61.2c12.852,0 25.092,6.732 33.661,15.912c12.239,12.852 11.628,28.152 11.628,44.676zm50.183,9.792l0,-0.612c-4.896,-34.271 -9.18,-69.156 -9.791,-103.428c-0.612,-14.688 -5.509,-45.9 8.567,-56.304c9.18,-6.732 28.151,-6.732 39.168,-4.896c33.048,6.732 29.376,59.976 29.988,87.516c0,44.676 -26.315,71.604 -67.932,77.724z"/>
  <path fill="#daa520" id="svg_5" d="m81.88,128.07c-7.956,0.612 -15.3,3.06 -22.644,5.508c-7.344,2.448 -15.3,4.896 -22.032,9.18c-4.896,3.06 -1.836,11.016 4.284,9.18c7.344,-1.836 13.464,-5.508 20.196,-8.568c7.344,-3.06 14.688,-5.508 21.42,-9.18c3.672,-1.836 2.448,-6.732 -1.224,-6.12z"/>
  <path fill="#daa520" id="svg_6" d="m58.624,81.558c-6.732,1.224 -13.464,1.836 -20.196,1.224c-6.12,-0.612 -12.24,-4.284 -18.972,-3.672c-4.284,0.612 -6.732,5.508 -3.672,9.18c9.792,10.404 33.66,7.956 45.288,3.06c6.732,-2.448 4.284,-10.404 -2.448,-9.792z"/>
  <path fill="#daa520" id="svg_7" d="m88,40.554c-7.344,-4.284 -12.852,-10.404 -18.36,-17.136c-3.06,-3.672 -9.18,0 -7.956,4.284c3.06,10.404 12.24,17.748 22.644,21.42c4.896,1.224 7.956,-6.12 3.672,-8.568z"/>
  <path fill="#daa520" id="svg_8" d="m137.572,4.446c0,-3.672 -4.896,-6.12 -7.956,-3.06c-6.732,6.12 -6.12,19.584 -3.672,28.152c1.224,4.896 9.792,4.284 9.18,-1.224c0,-4.284 -0.612,-7.956 0,-12.24c0.612,-4.284 2.448,-7.956 2.448,-11.628z"/>
  <path fill="#daa520" id="svg_9" d="m179.188,2.61c-3.673,3.672 -5.509,8.568 -7.345,13.464c-1.836,4.896 -4.284,9.18 -5.509,14.076c-0.612,3.672 4.285,7.344 6.732,4.284c3.061,-3.672 5.508,-8.568 7.956,-12.852c2.447,-4.284 5.508,-9.18 6.119,-14.076c0.614,-4.896 -4.892,-8.568 -7.953,-4.896z"/>
  <path fill="#daa520" id="svg_10" d="m206.116,44.226c-2.447,0 -4.283,1.224 -6.12,1.836c-1.836,0.612 -4.283,0.612 -6.119,0.612c-4.896,-0.612 -5.509,7.344 -1.225,7.956c5.508,1.224 15.912,0.612 17.137,-6.12c0.611,-1.836 -1.225,-3.672 -3.673,-4.284z"/>
  <path fill="#daa520" id="svg_11" d="m206.729,134.19c-2.448,-3.672 -6.12,-5.508 -9.793,-7.344c-3.672,-1.836 -7.344,-3.672 -11.016,-4.896c-3.672,-1.224 -5.509,3.672 -2.448,6.12c3.061,1.836 6.732,4.284 9.792,6.732c3.061,2.448 5.509,4.896 9.181,6.12c3.06,0.612 6.119,-3.672 4.284,-6.732z"/>
 </g>
</svg>