<?xml version="1.0" encoding="iso-8859-1"?>
<!-- Generator: Adobe Illustrator 19.0.0, SVG Export Plug-In . SVG Version: 6.00 Build 0)  -->
<svg xmlns="http://www.w3.org/2000/svg" xmlns:xlink="http://www.w3.org/1999/xlink" version="1.1" id="Layer_1" x="0px" y="0px" viewBox="0 0 512.002 512.002" style="enable-background:new 0 0 512.002 512.002;" xml:space="preserve" width="512" height="512">
<g id="XMLID_1981_">
	<g id="XMLID_106_">
		<path id="XMLID_107_" d="M256.081,492h-0.16c-5.522,0-10,4.477-10,10s4.478,10,10,10h0.16c5.522,0,10-4.477,10-10    S261.603,492,256.081,492z"/>
		<path id="XMLID_174_" d="M488.589,192h-42.454c0.02-0.769-0.038-1.551-0.205-2.336c-4.057-19.178-10.946-37.448-20.512-54.476    c19.346-9.412,32.713-29.267,32.713-52.188v-8c0-5.523-4.478-10-10-10h-89.933c-15.6-9.677-32.324-17.018-49.914-21.906    C311.947,35.496,314,26.984,314,18v-8c0-5.523-4.478-10-10-10h-96c-5.522,0-10,4.477-10,10v8c0,9.01,2.066,17.546,5.748,25.161    C186.247,48.048,169.596,55.358,154.053,65H63.87c-5.522,0-10,4.477-10,10v8c0,22.921,13.367,42.775,32.712,52.188    c-9.567,17.029-16.456,35.299-20.511,54.477c-0.166,0.785-0.225,1.567-0.205,2.336H23.413c-5.522,0-10,4.477-10,10v8    c0,30.091,23.036,54.896,52.397,57.724c0.012,0.067,0.016,0.133,0.029,0.2c4.219,21.282,11.894,41.429,22.833,60.061H63.87    c-5.522,0-10,4.477-10,10v8c0,31.981,26.019,58,58,58c13.728,0,26.349-4.804,36.294-12.806c0.105,0.076,0.202,0.159,0.311,0.231    c4.615,3.084,9.347,5.954,14.18,8.617L116.216,492h-39.12c-5.522,0-10,4.477-10,10s4.478,10,10,10h45.232    c0.011,0,0.023,0.002,0.034,0.002c0.01,0,0.019-0.002,0.029-0.002h93.53c5.522,0,10-4.477,10-10s-4.478-10-10-10h-77.299    l42.029-83.24c6.197,2.619,12.531,4.912,18.987,6.873c6.155,25.415,29.083,44.352,56.363,44.352    c27.25,0,50.157-18.894,56.343-44.265c6.477-1.957,12.836-4.245,19.056-6.865L373.381,492h-77.46c-5.522,0-10,4.477-10,10    s4.478,10,10,10h93.691c0.01,0,0.019,0.002,0.029,0.002c0.011,0,0.023-0.002,0.034-0.002h44.912c5.522,0,10-4.477,10-10    s-4.478-10-10-10h-38.801l-46.379-91.856c4.401-2.418,8.717-5.01,12.938-7.777c0.543-0.356,1.036-0.759,1.486-1.195    c9.946,8.006,22.57,12.813,36.302,12.813c31.981,0,58-26.019,58-58v-8c0-5.523-4.478-10-10-10h-24.54    c10.936-18.625,18.609-38.766,22.828-60.039c0.016-0.081,0.021-0.161,0.035-0.242c29.237-2.95,52.134-27.703,52.134-57.704v-8    C498.589,196.477,494.112,192,488.589,192z M425.962,192h-33.372c-5.522,0-10,4.477-10,10v8c0,3.411,0.313,6.749,0.881,10h-13.913    c-2.09-23.933-11.604-45.768-26.224-63.186l24.607-24.607c0.201-0.201,0.385-0.413,0.566-0.626    c9.104,5.947,19.965,9.419,31.627,9.419c1.816,0,3.609-0.095,5.383-0.259C415.062,156.669,421.927,173.875,425.962,192z     M169.87,83v-4.138c14.638-8.384,30.299-14.534,46.736-18.345c8.029,7.445,18.161,12.641,29.395,14.602v41.324    c-23.936,2.09-45.774,11.607-63.192,26.23L158.2,118.065c-0.032-0.032-0.067-0.058-0.099-0.09    C165.48,108.244,169.87,96.127,169.87,83z M295.455,60.46c16.42,3.788,32.061,9.909,46.677,18.247V83    c0,13.126,4.388,25.242,11.767,34.972c-0.033,0.032-0.069,0.059-0.102,0.092l-24.607,24.607    c-17.418-14.622-39.255-24.137-63.19-26.228V75.119C277.263,73.153,287.416,67.935,295.455,60.46z M274.447,230    c0,10.171-8.275,18.446-18.446,18.446s-18.445-8.275-18.445-18.446s8.274-18.446,18.445-18.446S274.447,219.829,274.447,230z     M246,192.881c-3.247,0.876-6.322,2.169-9.17,3.815l-39.822-39.822c13.699-11.073,30.557-18.383,48.992-20.342V192.881z     M275.167,196.694c-2.847-1.645-5.921-2.937-9.167-3.813v-56.349c18.434,1.958,35.291,9.268,48.989,20.34L275.167,196.694z     M222.69,210.841c-1.643,2.845-2.934,5.917-3.808,9.159h-56.35c1.958-18.431,9.266-35.285,20.334-48.983L222.69,210.841z     M218.882,240c0.875,3.245,2.167,6.319,3.813,9.167l-39.822,39.823c-11.072-13.699-18.381-30.555-20.34-48.989H218.882z     M226.429,273.717l-18.652,36.941c-3.767-2.26-7.361-4.778-10.763-7.527L226.429,273.717z M246,279.33v44.138    c-6.939-0.737-13.656-2.229-20.065-4.398L246,279.33z M266,279.33l20.065,39.74c-6.408,2.169-13.125,3.661-20.065,4.398V279.33z     M285.576,273.726l29.407,29.407c-3.4,2.748-6.994,5.265-10.76,7.525L285.576,273.726z M289.305,249.17    c1.646-2.848,2.939-5.923,3.814-9.17h56.349c-1.958,18.435-9.269,35.292-20.341,48.991L289.305,249.17z M293.12,220    c-0.875-3.244-2.167-6.316-3.811-9.163l39.823-39.822c11.07,13.698,18.378,30.553,20.336,48.985H293.12z M409.451,119.841    c-0.74,0.075-1.476,0.238-2.196,0.483c-2.309,0.44-4.688,0.675-7.123,0.675c-20.226,0-36.808-15.886-37.936-35.835    c0.093-0.05,0.18-0.112,0.272-0.165h75.612C437.201,101.853,425.29,115.833,409.451,119.841z M293.949,20    C292.904,40.026,276.283,56,256,56c-10.691,0-20.362-4.442-27.274-11.573c-0.645-1.087-1.48-2.03-2.458-2.791    c-4.783-6.005-7.791-13.484-8.216-21.636H293.949z M73.921,85h75.896c-1.045,20.026-17.666,36-37.948,36    c-2.435,0-4.815-0.236-7.124-0.676c-0.719-0.245-1.454-0.407-2.194-0.483C86.712,115.833,74.801,101.853,73.921,85z     M106.486,140.741c1.774,0.164,3.567,0.259,5.383,0.259c11.661,0,22.521-3.471,31.624-9.417c0.18,0.213,0.363,0.423,0.564,0.624    l24.609,24.61c-14.619,17.417-24.132,39.252-26.222,63.184h-13.912c0.568-3.251,0.881-6.589,0.881-10v-8c0-5.523-4.478-10-10-10    H86.04C90.074,173.876,96.939,156.671,106.486,140.741z M33.464,212h75.896c-1.045,20.026-17.666,36-37.948,36    S34.509,232.026,33.464,212z M111.694,327.057c-12.518-18.59-21.179-39.068-25.786-60.891    c14.827-3.829,27.373-13.389,35.126-26.166h21.41c2.09,23.935,11.606,45.772,26.228,63.19l-24.615,24.615    c-0.058,0.058-0.106,0.121-0.162,0.18h-31.649C112.08,327.67,111.897,327.359,111.694,327.057z M111.87,383.985    c-20.282,0-36.903-15.974-37.948-36h75.896C148.773,368.011,132.152,383.985,111.87,383.985z M161.474,376.015    c5.326-8.765,8.396-19.045,8.396-30.03v-8c0-2.176-0.703-4.184-1.883-5.825l14.828-14.828c4.969,4.171,10.297,7.927,15.931,11.214    l-27.073,53.621C168.21,380.239,164.812,378.184,161.474,376.015z M216.846,337.072c9.222,3.383,19.001,5.598,29.155,6.484v40.429    h-38c-5.522,0-10,4.477-10,10v0.065c-2.8-0.991-5.571-2.055-8.313-3.189L216.846,337.072z M256,439.985    c-20.282,0-36.903-15.974-37.948-36h37.648c0.101,0.003,0.199,0.015,0.3,0.015s0.199-0.012,0.3-0.015h37.648    C292.904,424.011,276.283,439.985,256,439.985z M314,394.145v-0.16c0-5.523-4.478-10-10-10h-38v-40.429    c10.154-0.887,19.933-3.102,29.155-6.484l27.204,53.878C319.601,392.085,316.815,393.153,314,394.145z M313.255,328.546    c5.634-3.286,10.96-7.042,15.929-11.212l14.829,14.829c-1.179,1.641-1.881,3.648-1.881,5.822v8    c0,11.036,3.101,21.361,8.473,30.153c-3.344,2.167-6.752,4.213-10.221,6.137L313.255,328.546z M400.132,383.985    c-20.282,0-36.903-15.974-37.948-36h75.896C437.036,368.011,420.415,383.985,400.132,383.985z M368.102,327.985    c-0.06-0.063-0.113-0.131-0.175-0.193l-24.6-24.6c14.623-17.419,24.139-39.256,26.229-63.192h21.411    c7.797,12.848,20.442,22.439,35.377,26.225c-4.585,21.674-13.169,42.023-25.557,60.509c-0.271,0.404-0.496,0.824-0.701,1.25    H368.102z M440.589,248c-20.282,0-36.903-15.974-37.948-36h75.896C477.493,232.026,460.872,248,440.589,248z"/>
	</g>
</g>















</svg>
