<svg height="512pt" viewBox="0 0 512 512" width="512pt" xmlns="http://www.w3.org/2000/svg"><path d="m504 96h-40.878906c10.398437-10.175781 16.878906-24.335938 16.878906-40 0-30.878906-25.121094-56-56-56-43.199219 0-80.3125 26.488281-96 64.0625-15.6875-37.574219-52.800781-64.0625-96-64.0625-30.878906 0-56 25.121094-56 56 0 15.664062 6.480469 29.824219 16.878906 40h-40.878906c-4.414062 0-8 3.585938-8 8v80c0 4.414062 3.585938 8 8 8h24v64h16v-64h96v64h16v-64h48v64h16v-64h96v304h-48v16h56c4.414062 0 8-3.585938 8-8v-312h24c4.414062 0 8-3.585938 8-8v-80c0-4.414062-3.585938-8-8-8zm-80-80c22.054688 0 40 17.945312 40 40s-17.945312 40-40 40h-87.640625c4.054687-44.792969 41.808594-80 87.640625-80zm-232 40c0-22.054688 17.945312-40 40-40 45.832031 0 83.585938 35.207031 87.640625 80h-87.640625c-22.054688 0-40-17.945312-40-40zm-32 120v-64h112v64zm128 0v-64h80v64zm208 0h-112v-64h112zm0 0"/><path d="m392 272h-320.464844c-1.238281 0-2.464844.289062-3.566406.839844l-12.496094 6.222656-12.488281-6.222656c-1.105469-.550782-2.320313-.839844-3.558594-.839844h-31.425781c-4.414062 0-8 3.585938-8 8v224c0 4.414062 3.585938 8 8 8h31.425781c2.117188 0 4.148438-.839844 5.644531-2.335938l10.410157-10.375 10.40625 10.375c1.496093 1.496094 3.527343 2.335938 5.648437 2.335938h320.464844c4.414062 0 8-3.585938 8-8v-224c0-4.414062-3.585938-8-8-8zm-8 224h-309.160156l-10.839844-10.792969v-21.207031h-16v20.152344l-11.878906 11.847656h-20.121094v-208h21.535156l10.464844 5.214844v26.785156h16v-27.3125l9.414062-4.6875h310.585938zm0 0"/><path d="m104 464h128c4.414062 0 8-3.585938 8-8v-96c0-4.414062-3.585938-8-8-8h-9.472656c.898437-2.511719 1.472656-5.183594 1.472656-8 0-13.230469-10.769531-24-24-24h-8c-9.601562 0-18.128906 4.335938-24 11.054688-5.871094-6.71875-14.398438-11.054688-24-11.054688h-8c-13.230469 0-24 10.769531-24 24 0 2.816406.574219 5.488281 1.472656 8h-9.472656c-4.414062 0-8 3.585938-8 8v96c0 4.414062 3.585938 8 8 8zm8-64h48v48h-48zm64 48v-48h48v48zm48-64h-48v-16h48zm-32-48h8c4.40625 0 8 3.59375 8 8s-3.59375 8-8 8h-24c0-8.824219 7.175781-16 16-16zm-64 8c0-4.40625 3.59375-8 8-8h8c8.824219 0 16 7.175781 16 16h-24c-4.40625 0-8-3.59375-8-8zm32 24v16h-48v-16zm0 0"/><path d="m266.339844 441.9375 79.195312-79.195312 11.3125 11.316406-79.195312 79.195312zm0 0"/><path d="m280 400c13.230469 0 24-10.769531 24-24s-10.769531-24-24-24-24 10.769531-24 24 10.769531 24 24 24zm0-32c4.40625 0 8 3.59375 8 8s-3.59375 8-8 8-8-3.59375-8-8 3.59375-8 8-8zm0 0"/><path d="m344 416c-13.230469 0-24 10.769531-24 24s10.769531 24 24 24 24-10.769531 24-24-10.769531-24-24-24zm0 32c-4.40625 0-8-3.59375-8-8s3.59375-8 8-8 8 3.59375 8 8-3.59375 8-8 8zm0 0"/><path d="m320 320h48v16h-48zm0 0"/><path d="m288 320h16v16h-16zm0 0"/><path d="m48 336h16v16h-16zm0 0"/><path d="m48 368h16v16h-16zm0 0"/><path d="m48 400h16v16h-16zm0 0"/><path d="m48 432h16v16h-16zm0 0"/></svg>