<?xml version="1.0" encoding="iso-8859-1"?>
<!-- Generator: Adobe Illustrator 19.1.0, SVG Export Plug-In . SVG Version: 6.00 Build 0)  -->
<svg version="1.1" id="Capa_1" xmlns="http://www.w3.org/2000/svg" xmlns:xlink="http://www.w3.org/1999/xlink" x="0px" y="0px"
	 viewBox="0 0 460.38 460.38" style="enable-background:new 0 0 460.38 460.38;" xml:space="preserve">
<g>
	<g id="XMLID_1_">
		<g>
			<path style="fill:#7FDDD3;" d="M426.97,106.725c15.61,15.6,23.41,36.05,23.41,56.5s-7.8,40.89-23.41,56.5l-112.99,113
				l-61.62-61.62l-20.54-20.54l-30.84-30.84c-15.54-15.55-23.35-35.9-23.41-56.28c7.62-4.4,16.3-6.74,25.33-6.74
				c1.39,0,2.76,0.05,4.13,0.17c-1.87,15.05,2.95,30.78,14.48,42.31l28.24,28.24l21.52,21.52l42.7,42.7l92.47-92.46
				c9.6-9.61,14.89-22.38,14.89-35.96c0-13.59-5.29-26.36-14.89-35.96c-9.61-9.61-22.38-14.9-35.97-14.9
				c-13.58,0-26.35,5.29-35.96,14.9l-20.54,20.53l-20.53-20.53c-9.61-9.61-22.38-14.9-35.96-14.9c-13.59,0-26.36,5.29-35.97,14.9
				c-0.7,0.7-1.37,1.41-2.01,2.14c-5.47-1.16-11.03-1.74-16.6-1.74c-6.04,0-12.06,0.68-17.97,2.04c3.83-8.32,9.19-16.12,16.05-22.98
				c31.2-31.21,81.79-31.21,113,0c15.6-15.61,36.05-23.41,56.5-23.41C390.92,83.315,411.37,91.115,426.97,106.725z"/>
			<path style="fill:#F297D6;" d="M282.8,207.565c0,14.35-3.84,28.7-11.53,41.38l-21.52-21.52c2.63-6.2,4.01-12.92,4.01-19.86
				c0-13.58-5.29-26.35-14.9-35.96c-8.62-8.63-19.81-13.78-31.83-14.73c-1.37-0.12-2.74-0.17-4.13-0.17
				c-9.03,0-17.71,2.34-25.33,6.74c-3.84,2.2-7.41,4.94-10.63,8.16l-20.54,20.54l-20.54-20.54c-9.6-9.61-22.37-14.9-35.96-14.9
				c-13.58,0-26.35,5.29-35.96,14.9c-19.83,19.83-19.83,52.09,0,71.92l92.46,92.46l85.42-85.42l20.54,20.54L146.4,377.065l-113-113
				c-15.6-15.6-23.4-36.05-23.4-56.5s7.8-40.89,23.4-56.5c31.21-31.2,81.8-31.2,113,0c11-11,24.4-18.12,38.52-21.35l0.01-0.01
				c5.91-1.36,11.93-2.04,17.97-2.04c5.57,0,11.13,0.58,16.6,1.74c14.62,3.08,28.55,10.31,39.9,21.66
				C275,166.675,282.8,187.115,282.8,207.565z"/>
		</g>
		<g>
			<path style="fill:none;stroke:#000000;stroke-width:20;stroke-linejoin:round;stroke-miterlimit:10;" d="M184.93,129.705
				c5.91-1.36,11.93-2.04,17.97-2.04c5.57,0,11.13,0.58,16.6,1.74c14.62,3.08,28.55,10.31,39.9,21.66
				c15.6,15.61,23.4,36.05,23.4,56.5c0,14.35-3.84,28.7-11.53,41.38"/>
			<path style="fill:none;stroke:#000000;stroke-width:20;stroke-linejoin:round;stroke-miterlimit:10;" d="M252.36,271.105
				L146.4,377.065l-113-113c-15.6-15.6-23.4-36.05-23.4-56.5s7.8-40.89,23.4-56.5c31.21-31.2,81.8-31.2,113,0
				c11-11,24.4-18.12,38.52-21.35"/>
			<path style="fill:none;stroke:#000000;stroke-width:20;stroke-linejoin:round;stroke-miterlimit:10;" d="M249.75,227.425
				c2.63-6.2,4.01-12.92,4.01-19.86c0-13.58-5.29-26.35-14.9-35.96c-8.62-8.63-19.81-13.78-31.83-14.73
				c-1.37-0.12-2.74-0.17-4.13-0.17c-9.03,0-17.71,2.34-25.33,6.74c-3.84,2.2-7.41,4.94-10.63,8.16l-20.54,20.54l-20.54-20.54
				c-9.6-9.61-22.37-14.9-35.96-14.9c-13.58,0-26.35,5.29-35.96,14.9c-19.83,19.83-19.83,52.09,0,71.92l92.46,92.46l85.42-85.42"/>
			<path style="fill:none;stroke:#000000;stroke-width:20;stroke-linejoin:round;stroke-miterlimit:10;" d="M184.92,129.715
				l0.01-0.01c3.83-8.32,9.19-16.12,16.05-22.98c31.2-31.21,81.79-31.21,113,0c15.6-15.61,36.05-23.41,56.5-23.41
				c20.44,0,40.89,7.8,56.49,23.41c15.61,15.6,23.41,36.05,23.41,56.5s-7.8,40.89-23.41,56.5l-112.99,113l-61.62-61.62l-20.54-20.54
				l-30.84-30.84c-15.54-15.55-23.35-35.9-23.41-56.28"/>
			<path style="fill:none;stroke:#000000;stroke-width:20;stroke-linejoin:round;stroke-miterlimit:10;" d="M207.03,156.875
				c-1.87,15.05,2.95,30.78,14.48,42.31l28.24,28.24l21.52,21.52l42.7,42.7l92.47-92.46c9.6-9.61,14.89-22.38,14.89-35.96
				c0-13.59-5.29-26.36-14.89-35.96c-9.61-9.61-22.38-14.9-35.97-14.9c-13.58,0-26.35,5.29-35.96,14.9l-20.54,20.53l-20.53-20.53
				c-9.61-9.61-22.38-14.9-35.96-14.9c-13.59,0-26.36,5.29-35.97,14.9c-0.7,0.7-1.37,1.41-2.01,2.14"/>
		</g>
	</g>
</g>
<g>
</g>
<g>
</g>
<g>
</g>
<g>
</g>
<g>
</g>
<g>
</g>
<g>
</g>
<g>
</g>
<g>
</g>
<g>
</g>
<g>
</g>
<g>
</g>
<g>
</g>
<g>
</g>
<g>
</g>
</svg>
